G04*
G04 #@! TF.GenerationSoftware,Altium Limited,Altium Designer,21.9.2 (33)*
G04*
G04 Layer_Color=255*
%FSTAX24Y24*%
%MOIN*%
G70*
G04*
G04 #@! TF.SameCoordinates,C5A77AB0-E889-4DE2-9FB0-3BE7D8941CBD*
G04*
G04*
G04 #@! TF.FilePolarity,Positive*
G04*
G01*
G75*
%ADD45C,0.0591*%
%ADD53P,0.0704X8X292.5*%
%ADD54C,0.0650*%
%ADD55C,0.0630*%
%ADD56R,0.0630X0.0630*%
%ADD57R,0.0591X0.0591*%
%ADD58O,0.0984X0.0472*%
%ADD59R,0.0984X0.0472*%
%ADD60C,0.1200*%
%ADD61C,0.0800*%
%ADD62R,0.0800X0.0800*%
%ADD63P,0.0704X8X22.5*%
%ADD64C,0.0700*%
%ADD65O,0.1772X0.0984*%
%ADD66O,0.0984X0.1772*%
%ADD67O,0.0984X0.1969*%
%ADD68O,0.0700X0.1000*%
%ADD69R,0.0700X0.1000*%
%ADD70R,0.0800X0.1000*%
%ADD71O,0.0800X0.1000*%
%ADD72R,0.0620X0.0900*%
%ADD73O,0.0620X0.0900*%
%ADD74R,0.0630X0.0630*%
%ADD75C,0.0512*%
%ADD76C,0.0551*%
%ADD77O,0.0660X0.1000*%
%ADD78R,0.1000X0.0700*%
%ADD79O,0.1000X0.0700*%
D45*
X043752Y051472D02*
D03*
X044752D02*
D03*
X045752D02*
D03*
X046752D02*
D03*
X047752D02*
D03*
X048752D02*
D03*
X049752D02*
D03*
X050752D02*
D03*
X051752D02*
D03*
X052752D02*
D03*
X053752D02*
D03*
X054752D02*
D03*
X055752D02*
D03*
X056752D02*
D03*
X057752D02*
D03*
X026378Y026535D02*
D03*
X031417D02*
D03*
X01878Y040354D02*
D03*
X01374D02*
D03*
Y049193D02*
D03*
Y043425D02*
D03*
Y046181D02*
D03*
X01878D02*
D03*
Y043425D02*
D03*
Y049193D02*
D03*
X030709Y021732D02*
D03*
Y016693D02*
D03*
D53*
X030748Y015707D02*
D03*
D54*
Y014707D02*
D03*
X023992Y02811D02*
D03*
D55*
X03678Y050189D02*
D03*
Y051189D02*
D03*
Y049189D02*
D03*
X062189Y022972D02*
D03*
Y023972D02*
D03*
X054972Y020201D02*
D03*
Y024201D02*
D03*
Y025201D02*
D03*
Y023201D02*
D03*
Y022201D02*
D03*
Y021201D02*
D03*
X014843Y036614D02*
D03*
D56*
X03678Y052189D02*
D03*
X062189Y021972D02*
D03*
X054972Y026201D02*
D03*
D57*
X058752Y051472D02*
D03*
D58*
X047768Y017157D02*
D03*
X037768Y030157D02*
D03*
Y029157D02*
D03*
Y028157D02*
D03*
Y027157D02*
D03*
Y026157D02*
D03*
Y025157D02*
D03*
Y024157D02*
D03*
Y023157D02*
D03*
Y022157D02*
D03*
Y021157D02*
D03*
Y020157D02*
D03*
Y019157D02*
D03*
Y018157D02*
D03*
Y017157D02*
D03*
X047768Y031157D02*
D03*
Y030157D02*
D03*
Y029157D02*
D03*
Y028157D02*
D03*
Y027157D02*
D03*
Y026157D02*
D03*
Y025157D02*
D03*
Y024157D02*
D03*
Y023157D02*
D03*
Y022157D02*
D03*
Y021157D02*
D03*
Y020157D02*
D03*
Y019157D02*
D03*
Y018157D02*
D03*
D59*
X037768Y031157D02*
D03*
D60*
X018661Y033622D02*
D03*
Y028898D02*
D03*
X013858Y033698D02*
D03*
Y028898D02*
D03*
X019449Y03126D02*
D03*
D61*
X022992Y033669D02*
D03*
D62*
Y030669D02*
D03*
D63*
X022992Y02811D02*
D03*
D64*
X027795Y016709D02*
D03*
Y014709D02*
D03*
X024961D02*
D03*
Y016709D02*
D03*
D65*
X017677Y014016D02*
D03*
D66*
X016299Y015906D02*
D03*
D67*
X018661D02*
D03*
D68*
X024567Y021024D02*
D03*
D69*
X026067D02*
D03*
D70*
X018055D02*
D03*
D71*
X019055D02*
D03*
X020055D02*
D03*
D72*
X043835Y049232D02*
D03*
D73*
X044835D02*
D03*
X045835D02*
D03*
X046835D02*
D03*
X047835D02*
D03*
X048835D02*
D03*
X049835D02*
D03*
X050835D02*
D03*
X051835D02*
D03*
X052835D02*
D03*
X053835D02*
D03*
X054835D02*
D03*
X055835D02*
D03*
X056835D02*
D03*
X057835D02*
D03*
X058835D02*
D03*
D74*
X013843Y036614D02*
D03*
D75*
X03176Y028972D02*
D03*
X03076D02*
D03*
X03176Y031972D02*
D03*
X03076D02*
D03*
D76*
X031772Y034724D02*
D03*
X027756D02*
D03*
D77*
X028323Y030866D02*
D03*
X027323D02*
D03*
X026323D02*
D03*
D78*
X021811Y016224D02*
D03*
D79*
Y014724D02*
D03*
M02*
