G04*
G04 #@! TF.GenerationSoftware,Altium Limited,Altium Designer,21.9.2 (33)*
G04*
G04 Layer_Color=16711935*
%FSTAX44Y44*%
%MOMM*%
G71*
G04*
G04 #@! TF.SameCoordinates,67635A12-4033-4AEC-8F55-7E8243AA85C5*
G04*
G04*
G04 #@! TF.FilePolarity,Positive*
G04*
G01*
G75*
%ADD52C,0.5000*%
%ADD81C,0.0500*%
D52*
X0078Y00757D02*
G03*
X0078Y00757I-00002J0D01*
G01*
D81*
X007878Y008121D02*
G03*
X007878Y008121I-000065J0D01*
G01*
X008132D02*
G03*
X008132Y008121I-000065J0D01*
G01*
Y007359D02*
G03*
X008132Y007359I-000065J0D01*
G01*
X007878D02*
G03*
X007878Y007359I-000065J0D01*
G01*
X007686Y00739D02*
Y00809D01*
X008194D01*
Y00739D02*
Y00809D01*
X007686Y00739D02*
X008194D01*
X007686Y00749D02*
X008194D01*
X00781998Y00791D02*
Y00802996D01*
X00776Y00796998D01*
X00783997D01*
X00803Y00800997D02*
X00804999Y00802996D01*
X00808998D01*
X00810997Y00800997D01*
Y00798997D01*
X00808998Y00796998D01*
X00806999D01*
X00808998D01*
X00810997Y00794999D01*
Y00792999D01*
X00808998Y00791D01*
X00804999D01*
X00803Y00792999D01*
X00811997Y00751D02*
X00804D01*
X00811997Y00758997D01*
Y00760997D01*
X00809998Y00762996D01*
X00805999D01*
X00804Y00760997D01*
M02*
