G04*
G04 #@! TF.GenerationSoftware,Altium Limited,Altium Designer,21.9.2 (33)*
G04*
G04 Layer_Color=2752767*
%FSTAX24Y24*%
%MOIN*%
G70*
G04*
G04 #@! TF.SameCoordinates,C5A77AB0-E889-4DE2-9FB0-3BE7D8941CBD*
G04*
G04*
G04 #@! TF.FilePolarity,Positive*
G04*
G01*
G75*
%ADD82C,0.0020*%
%ADD83C,0.0027*%
%ADD84C,0.0013*%
D82*
X030668Y015627D02*
Y015787D01*
X030828D01*
Y015627D01*
X030668D01*
Y014627D02*
Y014787D01*
X030828D01*
Y014627D01*
X030668D01*
X043752Y051392D02*
X043672Y051552D01*
X043832D01*
X043752Y051392D01*
X044752D02*
X044672Y051552D01*
X044832D01*
X044752Y051392D01*
X045752D02*
X045672Y051552D01*
X045832D01*
X045752Y051392D01*
X046752D02*
X046672Y051552D01*
X046832D01*
X046752Y051392D01*
X047752D02*
X047672Y051552D01*
X047832D01*
X047752Y051392D01*
X048752D02*
X048672Y051552D01*
X048832D01*
X048752Y051392D01*
X049752D02*
X049672Y051552D01*
X049832D01*
X049752Y051392D01*
X050752D02*
X050672Y051552D01*
X050832D01*
X050752Y051392D01*
X051752D02*
X051672Y051552D01*
X051832D01*
X051752Y051392D01*
X052752D02*
X052672Y051552D01*
X052832D01*
X052752Y051392D01*
X053752D02*
X053672Y051552D01*
X053832D01*
X053752Y051392D01*
X054752D02*
X054672Y051552D01*
X054832D01*
X054752Y051392D01*
X055752D02*
X055672Y051552D01*
X055832D01*
X055752Y051392D01*
X056752D02*
X056672Y051552D01*
X056832D01*
X056752Y051392D01*
X057752D02*
X057672Y051552D01*
X057832D01*
X057752Y051392D01*
X058752D02*
X058672Y051552D01*
X058832D01*
X058752Y051392D01*
X047768Y017077D02*
X047808Y017117D01*
X047848D01*
X047808Y017157D01*
X047848Y017197D01*
X047808D01*
X047768Y017237D01*
X047728Y017197D01*
X047688D01*
X047728Y017157D01*
X047688Y017117D01*
X047728D01*
X047768Y017077D01*
X037768Y031077D02*
X037808Y031117D01*
X037848D01*
X037808Y031157D01*
X037848Y031197D01*
X037808D01*
X037768Y031237D01*
X037728Y031197D01*
X037688D01*
X037728Y031157D01*
X037688Y031117D01*
X037728D01*
X037768Y031077D01*
Y030077D02*
X037808Y030117D01*
X037848D01*
X037808Y030157D01*
X037848Y030197D01*
X037808D01*
X037768Y030237D01*
X037728Y030197D01*
X037688D01*
X037728Y030157D01*
X037688Y030117D01*
X037728D01*
X037768Y030077D01*
Y029077D02*
X037808Y029117D01*
X037848D01*
X037808Y029157D01*
X037848Y029197D01*
X037808D01*
X037768Y029237D01*
X037728Y029197D01*
X037688D01*
X037728Y029157D01*
X037688Y029117D01*
X037728D01*
X037768Y029077D01*
Y028077D02*
X037808Y028117D01*
X037848D01*
X037808Y028157D01*
X037848Y028197D01*
X037808D01*
X037768Y028237D01*
X037728Y028197D01*
X037688D01*
X037728Y028157D01*
X037688Y028117D01*
X037728D01*
X037768Y028077D01*
Y027077D02*
X037808Y027117D01*
X037848D01*
X037808Y027157D01*
X037848Y027197D01*
X037808D01*
X037768Y027237D01*
X037728Y027197D01*
X037688D01*
X037728Y027157D01*
X037688Y027117D01*
X037728D01*
X037768Y027077D01*
Y026077D02*
X037808Y026117D01*
X037848D01*
X037808Y026157D01*
X037848Y026197D01*
X037808D01*
X037768Y026237D01*
X037728Y026197D01*
X037688D01*
X037728Y026157D01*
X037688Y026117D01*
X037728D01*
X037768Y026077D01*
Y025077D02*
X037808Y025117D01*
X037848D01*
X037808Y025157D01*
X037848Y025197D01*
X037808D01*
X037768Y025237D01*
X037728Y025197D01*
X037688D01*
X037728Y025157D01*
X037688Y025117D01*
X037728D01*
X037768Y025077D01*
Y024077D02*
X037808Y024117D01*
X037848D01*
X037808Y024157D01*
X037848Y024197D01*
X037808D01*
X037768Y024237D01*
X037728Y024197D01*
X037688D01*
X037728Y024157D01*
X037688Y024117D01*
X037728D01*
X037768Y024077D01*
Y023077D02*
X037808Y023117D01*
X037848D01*
X037808Y023157D01*
X037848Y023197D01*
X037808D01*
X037768Y023237D01*
X037728Y023197D01*
X037688D01*
X037728Y023157D01*
X037688Y023117D01*
X037728D01*
X037768Y023077D01*
Y022077D02*
X037808Y022117D01*
X037848D01*
X037808Y022157D01*
X037848Y022197D01*
X037808D01*
X037768Y022237D01*
X037728Y022197D01*
X037688D01*
X037728Y022157D01*
X037688Y022117D01*
X037728D01*
X037768Y022077D01*
Y021077D02*
X037808Y021117D01*
X037848D01*
X037808Y021157D01*
X037848Y021197D01*
X037808D01*
X037768Y021237D01*
X037728Y021197D01*
X037688D01*
X037728Y021157D01*
X037688Y021117D01*
X037728D01*
X037768Y021077D01*
Y020077D02*
X037808Y020117D01*
X037848D01*
X037808Y020157D01*
X037848Y020197D01*
X037808D01*
X037768Y020237D01*
X037728Y020197D01*
X037688D01*
X037728Y020157D01*
X037688Y020117D01*
X037728D01*
X037768Y020077D01*
Y019077D02*
X037808Y019117D01*
X037848D01*
X037808Y019157D01*
X037848Y019197D01*
X037808D01*
X037768Y019237D01*
X037728Y019197D01*
X037688D01*
X037728Y019157D01*
X037688Y019117D01*
X037728D01*
X037768Y019077D01*
Y018077D02*
X037808Y018117D01*
X037848D01*
X037808Y018157D01*
X037848Y018197D01*
X037808D01*
X037768Y018237D01*
X037728Y018197D01*
X037688D01*
X037728Y018157D01*
X037688Y018117D01*
X037728D01*
X037768Y018077D01*
Y017077D02*
X037808Y017117D01*
X037848D01*
X037808Y017157D01*
X037848Y017197D01*
X037808D01*
X037768Y017237D01*
X037728Y017197D01*
X037688D01*
X037728Y017157D01*
X037688Y017117D01*
X037728D01*
X037768Y017077D01*
X047768Y031077D02*
X047808Y031117D01*
X047848D01*
X047808Y031157D01*
X047848Y031197D01*
X047808D01*
X047768Y031237D01*
X047728Y031197D01*
X047688D01*
X047728Y031157D01*
X047688Y031117D01*
X047728D01*
X047768Y031077D01*
Y030077D02*
X047808Y030117D01*
X047848D01*
X047808Y030157D01*
X047848Y030197D01*
X047808D01*
X047768Y030237D01*
X047728Y030197D01*
X047688D01*
X047728Y030157D01*
X047688Y030117D01*
X047728D01*
X047768Y030077D01*
Y029077D02*
X047808Y029117D01*
X047848D01*
X047808Y029157D01*
X047848Y029197D01*
X047808D01*
X047768Y029237D01*
X047728Y029197D01*
X047688D01*
X047728Y029157D01*
X047688Y029117D01*
X047728D01*
X047768Y029077D01*
Y028077D02*
X047808Y028117D01*
X047848D01*
X047808Y028157D01*
X047848Y028197D01*
X047808D01*
X047768Y028237D01*
X047728Y028197D01*
X047688D01*
X047728Y028157D01*
X047688Y028117D01*
X047728D01*
X047768Y028077D01*
Y027077D02*
X047808Y027117D01*
X047848D01*
X047808Y027157D01*
X047848Y027197D01*
X047808D01*
X047768Y027237D01*
X047728Y027197D01*
X047688D01*
X047728Y027157D01*
X047688Y027117D01*
X047728D01*
X047768Y027077D01*
Y026077D02*
X047808Y026117D01*
X047848D01*
X047808Y026157D01*
X047848Y026197D01*
X047808D01*
X047768Y026237D01*
X047728Y026197D01*
X047688D01*
X047728Y026157D01*
X047688Y026117D01*
X047728D01*
X047768Y026077D01*
Y025077D02*
X047808Y025117D01*
X047848D01*
X047808Y025157D01*
X047848Y025197D01*
X047808D01*
X047768Y025237D01*
X047728Y025197D01*
X047688D01*
X047728Y025157D01*
X047688Y025117D01*
X047728D01*
X047768Y025077D01*
Y024077D02*
X047808Y024117D01*
X047848D01*
X047808Y024157D01*
X047848Y024197D01*
X047808D01*
X047768Y024237D01*
X047728Y024197D01*
X047688D01*
X047728Y024157D01*
X047688Y024117D01*
X047728D01*
X047768Y024077D01*
Y023077D02*
X047808Y023117D01*
X047848D01*
X047808Y023157D01*
X047848Y023197D01*
X047808D01*
X047768Y023237D01*
X047728Y023197D01*
X047688D01*
X047728Y023157D01*
X047688Y023117D01*
X047728D01*
X047768Y023077D01*
Y022077D02*
X047808Y022117D01*
X047848D01*
X047808Y022157D01*
X047848Y022197D01*
X047808D01*
X047768Y022237D01*
X047728Y022197D01*
X047688D01*
X047728Y022157D01*
X047688Y022117D01*
X047728D01*
X047768Y022077D01*
Y021077D02*
X047808Y021117D01*
X047848D01*
X047808Y021157D01*
X047848Y021197D01*
X047808D01*
X047768Y021237D01*
X047728Y021197D01*
X047688D01*
X047728Y021157D01*
X047688Y021117D01*
X047728D01*
X047768Y021077D01*
Y020077D02*
X047808Y020117D01*
X047848D01*
X047808Y020157D01*
X047848Y020197D01*
X047808D01*
X047768Y020237D01*
X047728Y020197D01*
X047688D01*
X047728Y020157D01*
X047688Y020117D01*
X047728D01*
X047768Y020077D01*
Y019077D02*
X047808Y019117D01*
X047848D01*
X047808Y019157D01*
X047848Y019197D01*
X047808D01*
X047768Y019237D01*
X047728Y019197D01*
X047688D01*
X047728Y019157D01*
X047688Y019117D01*
X047728D01*
X047768Y019077D01*
Y018077D02*
X047808Y018117D01*
X047848D01*
X047808Y018157D01*
X047848Y018197D01*
X047808D01*
X047768Y018237D01*
X047728Y018197D01*
X047688D01*
X047728Y018157D01*
X047688Y018117D01*
X047728D01*
X047768Y018077D01*
X018581Y033542D02*
X018621Y033622D01*
X018581Y033702D01*
X018661Y033662D01*
X018741Y033702D01*
X018701Y033622D01*
X018741Y033542D01*
X018661Y033582D01*
X018581Y033542D01*
Y028818D02*
X018621Y028898D01*
X018581Y028978D01*
X018661Y028938D01*
X018741Y028978D01*
X018701Y028898D01*
X018741Y028818D01*
X018661Y028858D01*
X018581Y028818D01*
X013778Y033618D02*
X013818Y033698D01*
X013778Y033778D01*
X013858Y033738D01*
X013938Y033778D01*
X013898Y033698D01*
X013938Y033618D01*
X013858Y033658D01*
X013778Y033618D01*
Y028818D02*
X013818Y028898D01*
X013778Y028978D01*
X013858Y028938D01*
X013938Y028978D01*
X013898Y028898D01*
X013938Y028818D01*
X013858Y028858D01*
X013778Y028818D01*
X019369Y03118D02*
X019409Y03126D01*
X019369Y03134D01*
X019449Y0313D01*
X019529Y03134D01*
X019489Y03126D01*
X019529Y03118D01*
X019449Y03122D01*
X019369Y03118D01*
X022952Y033629D02*
Y033589D01*
X023032D01*
Y033629D01*
X023072D01*
Y033709D01*
X023032D01*
Y033749D01*
X022952D01*
Y033709D01*
X022912D01*
Y033629D01*
X022952D01*
Y030629D02*
Y030589D01*
X023032D01*
Y030629D01*
X023072D01*
Y030709D01*
X023032D01*
Y030749D01*
X022952D01*
Y030709D01*
X022912D01*
Y030629D01*
X022952D01*
X026298Y026455D02*
X026338D01*
X026378Y026495D01*
X026418Y026455D01*
X026458D01*
Y026495D01*
X026418Y026535D01*
X026458Y026575D01*
Y026615D01*
X026418D01*
X026378Y026575D01*
X026338Y026615D01*
X026298D01*
Y026575D01*
X026338Y026535D01*
X026298Y026495D01*
Y026455D01*
X031337D02*
X031377D01*
X031417Y026495D01*
X031457Y026455D01*
X031497D01*
Y026495D01*
X031457Y026535D01*
X031497Y026575D01*
Y026615D01*
X031457D01*
X031417Y026575D01*
X031377Y026615D01*
X031337D01*
Y026575D01*
X031377Y026535D01*
X031337Y026495D01*
Y026455D01*
X022912Y02803D02*
Y02819D01*
X023072D01*
Y02803D01*
X022912D01*
X023912D02*
Y02819D01*
X024072D01*
Y02803D01*
X023912D01*
X027715Y016709D02*
X027795Y016789D01*
X027875Y016709D01*
X027795Y016629D01*
X027715Y016709D01*
Y014709D02*
X027795Y014789D01*
X027875Y014709D01*
X027795Y014629D01*
X027715Y014709D01*
X017597Y013936D02*
Y014096D01*
X017757D01*
Y013936D01*
X017597D01*
X017637Y013976D02*
Y014056D01*
X017717D01*
Y013976D01*
X017637D01*
X016219Y015826D02*
Y015986D01*
X016379D01*
Y015826D01*
X016219D01*
X016259Y015866D02*
Y015946D01*
X016339D01*
Y015866D01*
X016259D01*
X024567Y020944D02*
X024487Y021104D01*
X024647D01*
X024567Y020944D01*
Y020984D02*
X024527Y021064D01*
X024607D01*
X024567Y020984D01*
X026067Y020944D02*
X025987Y021104D01*
X026147D01*
X026067Y020944D01*
Y020984D02*
X026027Y021064D01*
X026107D01*
X026067Y020984D01*
X018055Y020944D02*
X018095Y020984D01*
X018135D01*
X018095Y021024D01*
X018135Y021064D01*
X018095D01*
X018055Y021104D01*
X018015Y021064D01*
X017975D01*
X018015Y021024D01*
X017975Y020984D01*
X018015D01*
X018055Y020944D01*
Y020984D02*
X018075Y021004D01*
X018095D01*
X018075Y021024D01*
X018095Y021044D01*
X018075D01*
X018055Y021064D01*
X018035Y021044D01*
X018015D01*
X018035Y021024D01*
X018015Y021004D01*
X018035D01*
X018055Y020984D01*
X019055Y020944D02*
X019095Y020984D01*
X019135D01*
X019095Y021024D01*
X019135Y021064D01*
X019095D01*
X019055Y021104D01*
X019015Y021064D01*
X018975D01*
X019015Y021024D01*
X018975Y020984D01*
X019015D01*
X019055Y020944D01*
Y020984D02*
X019075Y021004D01*
X019095D01*
X019075Y021024D01*
X019095Y021044D01*
X019075D01*
X019055Y021064D01*
X019035Y021044D01*
X019015D01*
X019035Y021024D01*
X019015Y021004D01*
X019035D01*
X019055Y020984D01*
X020055Y020944D02*
X020095Y020984D01*
X020135D01*
X020095Y021024D01*
X020135Y021064D01*
X020095D01*
X020055Y021104D01*
X020015Y021064D01*
X019975D01*
X020015Y021024D01*
X019975Y020984D01*
X020015D01*
X020055Y020944D01*
Y020984D02*
X020075Y021004D01*
X020095D01*
X020075Y021024D01*
X020095Y021044D01*
X020075D01*
X020055Y021064D01*
X020035Y021044D01*
X020015D01*
X020035Y021024D01*
X020015Y021004D01*
X020035D01*
X020055Y020984D01*
X043835Y049152D02*
X043875Y049192D01*
X043915D01*
X043875Y049232D01*
X043915Y049272D01*
X043875D01*
X043835Y049312D01*
X043795Y049272D01*
X043755D01*
X043795Y049232D01*
X043755Y049192D01*
X043795D01*
X043835Y049152D01*
Y049192D02*
X043855Y049212D01*
X043875D01*
X043855Y049232D01*
X043875Y049252D01*
X043855D01*
X043835Y049272D01*
X043815Y049252D01*
X043795D01*
X043815Y049232D01*
X043795Y049212D01*
X043815D01*
X043835Y049192D01*
X044835Y049152D02*
X044875Y049192D01*
X044915D01*
X044875Y049232D01*
X044915Y049272D01*
X044875D01*
X044835Y049312D01*
X044795Y049272D01*
X044755D01*
X044795Y049232D01*
X044755Y049192D01*
X044795D01*
X044835Y049152D01*
Y049192D02*
X044855Y049212D01*
X044875D01*
X044855Y049232D01*
X044875Y049252D01*
X044855D01*
X044835Y049272D01*
X044815Y049252D01*
X044795D01*
X044815Y049232D01*
X044795Y049212D01*
X044815D01*
X044835Y049192D01*
X045835Y049152D02*
X045875Y049192D01*
X045915D01*
X045875Y049232D01*
X045915Y049272D01*
X045875D01*
X045835Y049312D01*
X045795Y049272D01*
X045755D01*
X045795Y049232D01*
X045755Y049192D01*
X045795D01*
X045835Y049152D01*
Y049192D02*
X045855Y049212D01*
X045875D01*
X045855Y049232D01*
X045875Y049252D01*
X045855D01*
X045835Y049272D01*
X045815Y049252D01*
X045795D01*
X045815Y049232D01*
X045795Y049212D01*
X045815D01*
X045835Y049192D01*
X046835Y049152D02*
X046875Y049192D01*
X046915D01*
X046875Y049232D01*
X046915Y049272D01*
X046875D01*
X046835Y049312D01*
X046795Y049272D01*
X046755D01*
X046795Y049232D01*
X046755Y049192D01*
X046795D01*
X046835Y049152D01*
Y049192D02*
X046855Y049212D01*
X046875D01*
X046855Y049232D01*
X046875Y049252D01*
X046855D01*
X046835Y049272D01*
X046815Y049252D01*
X046795D01*
X046815Y049232D01*
X046795Y049212D01*
X046815D01*
X046835Y049192D01*
X047835Y049152D02*
X047875Y049192D01*
X047915D01*
X047875Y049232D01*
X047915Y049272D01*
X047875D01*
X047835Y049312D01*
X047795Y049272D01*
X047755D01*
X047795Y049232D01*
X047755Y049192D01*
X047795D01*
X047835Y049152D01*
Y049192D02*
X047855Y049212D01*
X047875D01*
X047855Y049232D01*
X047875Y049252D01*
X047855D01*
X047835Y049272D01*
X047815Y049252D01*
X047795D01*
X047815Y049232D01*
X047795Y049212D01*
X047815D01*
X047835Y049192D01*
X048835Y049152D02*
X048875Y049192D01*
X048915D01*
X048875Y049232D01*
X048915Y049272D01*
X048875D01*
X048835Y049312D01*
X048795Y049272D01*
X048755D01*
X048795Y049232D01*
X048755Y049192D01*
X048795D01*
X048835Y049152D01*
Y049192D02*
X048855Y049212D01*
X048875D01*
X048855Y049232D01*
X048875Y049252D01*
X048855D01*
X048835Y049272D01*
X048815Y049252D01*
X048795D01*
X048815Y049232D01*
X048795Y049212D01*
X048815D01*
X048835Y049192D01*
X049835Y049152D02*
X049875Y049192D01*
X049915D01*
X049875Y049232D01*
X049915Y049272D01*
X049875D01*
X049835Y049312D01*
X049795Y049272D01*
X049755D01*
X049795Y049232D01*
X049755Y049192D01*
X049795D01*
X049835Y049152D01*
Y049192D02*
X049855Y049212D01*
X049875D01*
X049855Y049232D01*
X049875Y049252D01*
X049855D01*
X049835Y049272D01*
X049815Y049252D01*
X049795D01*
X049815Y049232D01*
X049795Y049212D01*
X049815D01*
X049835Y049192D01*
X050835Y049152D02*
X050875Y049192D01*
X050915D01*
X050875Y049232D01*
X050915Y049272D01*
X050875D01*
X050835Y049312D01*
X050795Y049272D01*
X050755D01*
X050795Y049232D01*
X050755Y049192D01*
X050795D01*
X050835Y049152D01*
Y049192D02*
X050855Y049212D01*
X050875D01*
X050855Y049232D01*
X050875Y049252D01*
X050855D01*
X050835Y049272D01*
X050815Y049252D01*
X050795D01*
X050815Y049232D01*
X050795Y049212D01*
X050815D01*
X050835Y049192D01*
X051835Y049152D02*
X051875Y049192D01*
X051915D01*
X051875Y049232D01*
X051915Y049272D01*
X051875D01*
X051835Y049312D01*
X051795Y049272D01*
X051755D01*
X051795Y049232D01*
X051755Y049192D01*
X051795D01*
X051835Y049152D01*
Y049192D02*
X051855Y049212D01*
X051875D01*
X051855Y049232D01*
X051875Y049252D01*
X051855D01*
X051835Y049272D01*
X051815Y049252D01*
X051795D01*
X051815Y049232D01*
X051795Y049212D01*
X051815D01*
X051835Y049192D01*
X052835Y049152D02*
X052875Y049192D01*
X052915D01*
X052875Y049232D01*
X052915Y049272D01*
X052875D01*
X052835Y049312D01*
X052795Y049272D01*
X052755D01*
X052795Y049232D01*
X052755Y049192D01*
X052795D01*
X052835Y049152D01*
Y049192D02*
X052855Y049212D01*
X052875D01*
X052855Y049232D01*
X052875Y049252D01*
X052855D01*
X052835Y049272D01*
X052815Y049252D01*
X052795D01*
X052815Y049232D01*
X052795Y049212D01*
X052815D01*
X052835Y049192D01*
X053835Y049152D02*
X053875Y049192D01*
X053915D01*
X053875Y049232D01*
X053915Y049272D01*
X053875D01*
X053835Y049312D01*
X053795Y049272D01*
X053755D01*
X053795Y049232D01*
X053755Y049192D01*
X053795D01*
X053835Y049152D01*
Y049192D02*
X053855Y049212D01*
X053875D01*
X053855Y049232D01*
X053875Y049252D01*
X053855D01*
X053835Y049272D01*
X053815Y049252D01*
X053795D01*
X053815Y049232D01*
X053795Y049212D01*
X053815D01*
X053835Y049192D01*
X054835Y049152D02*
X054875Y049192D01*
X054915D01*
X054875Y049232D01*
X054915Y049272D01*
X054875D01*
X054835Y049312D01*
X054795Y049272D01*
X054755D01*
X054795Y049232D01*
X054755Y049192D01*
X054795D01*
X054835Y049152D01*
Y049192D02*
X054855Y049212D01*
X054875D01*
X054855Y049232D01*
X054875Y049252D01*
X054855D01*
X054835Y049272D01*
X054815Y049252D01*
X054795D01*
X054815Y049232D01*
X054795Y049212D01*
X054815D01*
X054835Y049192D01*
X055835Y049152D02*
X055875Y049192D01*
X055915D01*
X055875Y049232D01*
X055915Y049272D01*
X055875D01*
X055835Y049312D01*
X055795Y049272D01*
X055755D01*
X055795Y049232D01*
X055755Y049192D01*
X055795D01*
X055835Y049152D01*
Y049192D02*
X055855Y049212D01*
X055875D01*
X055855Y049232D01*
X055875Y049252D01*
X055855D01*
X055835Y049272D01*
X055815Y049252D01*
X055795D01*
X055815Y049232D01*
X055795Y049212D01*
X055815D01*
X055835Y049192D01*
X056835Y049152D02*
X056875Y049192D01*
X056915D01*
X056875Y049232D01*
X056915Y049272D01*
X056875D01*
X056835Y049312D01*
X056795Y049272D01*
X056755D01*
X056795Y049232D01*
X056755Y049192D01*
X056795D01*
X056835Y049152D01*
Y049192D02*
X056855Y049212D01*
X056875D01*
X056855Y049232D01*
X056875Y049252D01*
X056855D01*
X056835Y049272D01*
X056815Y049252D01*
X056795D01*
X056815Y049232D01*
X056795Y049212D01*
X056815D01*
X056835Y049192D01*
X057835Y049152D02*
X057875Y049192D01*
X057915D01*
X057875Y049232D01*
X057915Y049272D01*
X057875D01*
X057835Y049312D01*
X057795Y049272D01*
X057755D01*
X057795Y049232D01*
X057755Y049192D01*
X057795D01*
X057835Y049152D01*
Y049192D02*
X057855Y049212D01*
X057875D01*
X057855Y049232D01*
X057875Y049252D01*
X057855D01*
X057835Y049272D01*
X057815Y049252D01*
X057795D01*
X057815Y049232D01*
X057795Y049212D01*
X057815D01*
X057835Y049192D01*
X058835Y049152D02*
X058875Y049192D01*
X058915D01*
X058875Y049232D01*
X058915Y049272D01*
X058875D01*
X058835Y049312D01*
X058795Y049272D01*
X058755D01*
X058795Y049232D01*
X058755Y049192D01*
X058795D01*
X058835Y049152D01*
Y049192D02*
X058855Y049212D01*
X058875D01*
X058855Y049232D01*
X058875Y049252D01*
X058855D01*
X058835Y049272D01*
X058815Y049252D01*
X058795D01*
X058815Y049232D01*
X058795Y049212D01*
X058815D01*
X058835Y049192D01*
X0187Y040274D02*
X01874D01*
X01878Y040314D01*
X01882Y040274D01*
X01886D01*
Y040314D01*
X01882Y040354D01*
X01886Y040394D01*
Y040434D01*
X01882D01*
X01878Y040394D01*
X01874Y040434D01*
X0187D01*
Y040394D01*
X01874Y040354D01*
X0187Y040314D01*
Y040274D01*
X01366D02*
X0137D01*
X01374Y040314D01*
X01378Y040274D01*
X01382D01*
Y040314D01*
X01378Y040354D01*
X01382Y040394D01*
Y040434D01*
X01378D01*
X01374Y040394D01*
X0137Y040434D01*
X01366D01*
Y040394D01*
X0137Y040354D01*
X01366Y040314D01*
Y040274D01*
Y049113D02*
X0137D01*
X01374Y049153D01*
X01378Y049113D01*
X01382D01*
Y049153D01*
X01378Y049193D01*
X01382Y049233D01*
Y049273D01*
X01378D01*
X01374Y049233D01*
X0137Y049273D01*
X01366D01*
Y049233D01*
X0137Y049193D01*
X01366Y049153D01*
Y049113D01*
Y043345D02*
X0137D01*
X01374Y043385D01*
X01378Y043345D01*
X01382D01*
Y043385D01*
X01378Y043425D01*
X01382Y043465D01*
Y043505D01*
X01378D01*
X01374Y043465D01*
X0137Y043505D01*
X01366D01*
Y043465D01*
X0137Y043425D01*
X01366Y043385D01*
Y043345D01*
Y046101D02*
X0137D01*
X01374Y046141D01*
X01378Y046101D01*
X01382D01*
Y046141D01*
X01378Y046181D01*
X01382Y046221D01*
Y046261D01*
X01378D01*
X01374Y046221D01*
X0137Y046261D01*
X01366D01*
Y046221D01*
X0137Y046181D01*
X01366Y046141D01*
Y046101D01*
X0187D02*
X01874D01*
X01878Y046141D01*
X01882Y046101D01*
X01886D01*
Y046141D01*
X01882Y046181D01*
X01886Y046221D01*
Y046261D01*
X01882D01*
X01878Y046221D01*
X01874Y046261D01*
X0187D01*
Y046221D01*
X01874Y046181D01*
X0187Y046141D01*
Y046101D01*
X031772Y034644D02*
X031812Y034684D01*
X031852D01*
X031812Y034724D01*
X031852Y034764D01*
X031812D01*
X031772Y034804D01*
X031732Y034764D01*
X031692D01*
X031732Y034724D01*
X031692Y034684D01*
X031732D01*
X031772Y034644D01*
X027756D02*
X027796Y034684D01*
X027836D01*
X027796Y034724D01*
X027836Y034764D01*
X027796D01*
X027756Y034804D01*
X027716Y034764D01*
X027676D01*
X027716Y034724D01*
X027676Y034684D01*
X027716D01*
X027756Y034644D01*
X028323Y030786D02*
X028243Y030946D01*
X028403D01*
X028323Y030786D01*
Y030826D02*
X028283Y030906D01*
X028363D01*
X028323Y030826D01*
X027323Y030786D02*
X027243Y030946D01*
X027403D01*
X027323Y030786D01*
Y030826D02*
X027283Y030906D01*
X027363D01*
X027323Y030826D01*
X026323Y030786D02*
X026243Y030946D01*
X026403D01*
X026323Y030786D01*
Y030826D02*
X026283Y030906D01*
X026363D01*
X026323Y030826D01*
X0187Y043345D02*
X01874D01*
X01878Y043385D01*
X01882Y043345D01*
X01886D01*
Y043385D01*
X01882Y043425D01*
X01886Y043465D01*
Y043505D01*
X01882D01*
X01878Y043465D01*
X01874Y043505D01*
X0187D01*
Y043465D01*
X01874Y043425D01*
X0187Y043385D01*
Y043345D01*
Y049113D02*
X01874D01*
X01878Y049153D01*
X01882Y049113D01*
X01886D01*
Y049153D01*
X01882Y049193D01*
X01886Y049233D01*
Y049273D01*
X01882D01*
X01878Y049233D01*
X01874Y049273D01*
X0187D01*
Y049233D01*
X01874Y049193D01*
X0187Y049153D01*
Y049113D01*
X030629Y021652D02*
X030669D01*
X030709Y021692D01*
X030749Y021652D01*
X030789D01*
Y021692D01*
X030749Y021732D01*
X030789Y021772D01*
Y021812D01*
X030749D01*
X030709Y021772D01*
X030669Y021812D01*
X030629D01*
Y021772D01*
X030669Y021732D01*
X030629Y021692D01*
Y021652D01*
Y016613D02*
X030669D01*
X030709Y016653D01*
X030749Y016613D01*
X030789D01*
Y016653D01*
X030749Y016693D01*
X030789Y016733D01*
Y016773D01*
X030749D01*
X030709Y016733D01*
X030669Y016773D01*
X030629D01*
Y016733D01*
X030669Y016693D01*
X030629Y016653D01*
Y016613D01*
X024881Y014709D02*
X024961Y014789D01*
X025041Y014709D01*
X024961Y014629D01*
X024881Y014709D01*
Y016709D02*
X024961Y016789D01*
X025041Y016709D01*
X024961Y016629D01*
X024881Y016709D01*
X021811Y016144D02*
X021731Y016304D01*
X021891D01*
X021811Y016144D01*
Y016184D02*
X021771Y016264D01*
X021851D01*
X021811Y016184D01*
Y014644D02*
X021731Y014804D01*
X021891D01*
X021811Y014644D01*
Y014684D02*
X021771Y014764D01*
X021851D01*
X021811Y014684D01*
X052428Y013503D02*
X052468Y013583D01*
X052428Y013663D01*
X052508Y013623D01*
X052588Y013663D01*
X052548Y013583D01*
X052588Y013503D01*
X052508Y013543D01*
X052428Y013503D01*
X052468Y013543D02*
X052488Y013583D01*
X052468Y013623D01*
X052508Y013603D01*
X052548Y013623D01*
X052528Y013583D01*
X052548Y013543D01*
X052508Y013563D01*
X052468Y013543D01*
X049326Y013518D02*
X049366Y013598D01*
X049326Y013678D01*
X049406Y013638D01*
X049486Y013678D01*
X049446Y013598D01*
X049486Y013518D01*
X049406Y013558D01*
X049326Y013518D01*
X049366Y013558D02*
X049386Y013598D01*
X049366Y013638D01*
X049406Y013618D01*
X049446Y013638D01*
X049426Y013598D01*
X049446Y013558D01*
X049406Y013578D01*
X049366Y013558D01*
X034637Y013589D02*
X034677Y013669D01*
X034637Y013749D01*
X034717Y013709D01*
X034797Y013749D01*
X034757Y013669D01*
X034797Y013589D01*
X034717Y013629D01*
X034637Y013589D01*
X034677Y013629D02*
X034697Y013669D01*
X034677Y013709D01*
X034717Y013689D01*
X034757Y013709D01*
X034737Y013669D01*
X034757Y013629D01*
X034717Y013649D01*
X034677Y013629D01*
X032617Y013877D02*
X032657Y013957D01*
X032617Y014037D01*
X032697Y013997D01*
X032777Y014037D01*
X032737Y013957D01*
X032777Y013877D01*
X032697Y013917D01*
X032617Y013877D01*
X032657Y013917D02*
X032677Y013957D01*
X032657Y013997D01*
X032697Y013977D01*
X032737Y013997D01*
X032717Y013957D01*
X032737Y013917D01*
X032697Y013937D01*
X032657Y013917D01*
X048495Y011955D02*
X048535Y012035D01*
X048495Y012115D01*
X048575Y012075D01*
X048655Y012115D01*
X048615Y012035D01*
X048655Y011955D01*
X048575Y011995D01*
X048495Y011955D01*
X048535Y011995D02*
X048555Y012035D01*
X048535Y012075D01*
X048575Y012055D01*
X048615Y012075D01*
X048595Y012035D01*
X048615Y011995D01*
X048575Y012015D01*
X048535Y011995D01*
X052196Y011955D02*
X052236Y012035D01*
X052196Y012115D01*
X052276Y012075D01*
X052356Y012115D01*
X052316Y012035D01*
X052356Y011955D01*
X052276Y011995D01*
X052196Y011955D01*
X052236Y011995D02*
X052256Y012035D01*
X052236Y012075D01*
X052276Y012055D01*
X052316Y012075D01*
X052296Y012035D01*
X052316Y011995D01*
X052276Y012015D01*
X052236Y011995D01*
X032826Y021432D02*
X032866Y021512D01*
X032826Y021592D01*
X032906Y021552D01*
X032986Y021592D01*
X032946Y021512D01*
X032986Y021432D01*
X032906Y021472D01*
X032826Y021432D01*
X032866Y021472D02*
X032886Y021512D01*
X032866Y021552D01*
X032906Y021532D01*
X032946Y021552D01*
X032926Y021512D01*
X032946Y021472D01*
X032906Y021492D01*
X032866Y021472D01*
X032794Y019007D02*
X032834Y019087D01*
X032794Y019167D01*
X032874Y019127D01*
X032954Y019167D01*
X032914Y019087D01*
X032954Y019007D01*
X032874Y019047D01*
X032794Y019007D01*
X032834Y019047D02*
X032854Y019087D01*
X032834Y019127D01*
X032874Y019107D01*
X032914Y019127D01*
X032894Y019087D01*
X032914Y019047D01*
X032874Y019067D01*
X032834Y019047D01*
X028416Y043392D02*
X028456Y043472D01*
X028416Y043552D01*
X028496Y043512D01*
X028576Y043552D01*
X028536Y043472D01*
X028576Y043392D01*
X028496Y043432D01*
X028416Y043392D01*
X028456Y043432D02*
X028476Y043472D01*
X028456Y043512D01*
X028496Y043492D01*
X028536Y043512D01*
X028516Y043472D01*
X028536Y043432D01*
X028496Y043452D01*
X028456Y043432D01*
X028455Y04029D02*
X028495Y04037D01*
X028455Y04045D01*
X028535Y04041D01*
X028615Y04045D01*
X028575Y04037D01*
X028615Y04029D01*
X028535Y04033D01*
X028455Y04029D01*
X028495Y04033D02*
X028515Y04037D01*
X028495Y04041D01*
X028535Y04039D01*
X028575Y04041D01*
X028555Y04037D01*
X028575Y04033D01*
X028535Y04035D01*
X028495Y04033D01*
X028385Y046101D02*
X028425Y046181D01*
X028385Y046261D01*
X028465Y046221D01*
X028545Y046261D01*
X028505Y046181D01*
X028545Y046101D01*
X028465Y046141D01*
X028385Y046101D01*
X028425Y046141D02*
X028445Y046181D01*
X028425Y046221D01*
X028465Y046201D01*
X028505Y046221D01*
X028485Y046181D01*
X028505Y046141D01*
X028465Y046161D01*
X028425Y046141D01*
X028385Y049054D02*
X028425Y049134D01*
X028385Y049214D01*
X028465Y049174D01*
X028545Y049214D01*
X028505Y049134D01*
X028545Y049054D01*
X028465Y049094D01*
X028385Y049054D01*
X028425Y049094D02*
X028445Y049134D01*
X028425Y049174D01*
X028465Y049154D01*
X028505Y049174D01*
X028485Y049134D01*
X028505Y049094D01*
X028465Y049114D01*
X028425Y049094D01*
X028385Y037637D02*
X028425Y037717D01*
X028385Y037797D01*
X028465Y037757D01*
X028545Y037797D01*
X028505Y037717D01*
X028545Y037637D01*
X028465Y037677D01*
X028385Y037637D01*
X028425Y037677D02*
X028445Y037717D01*
X028425Y037757D01*
X028465Y037737D01*
X028505Y037757D01*
X028485Y037717D01*
X028505Y037677D01*
X028465Y037697D01*
X028425Y037677D01*
X025353Y035432D02*
X025393Y035512D01*
X025353Y035592D01*
X025433Y035552D01*
X025513Y035592D01*
X025473Y035512D01*
X025513Y035432D01*
X025433Y035472D01*
X025353Y035432D01*
X025393Y035472D02*
X025413Y035512D01*
X025393Y035552D01*
X025433Y035532D01*
X025473Y035552D01*
X025453Y035512D01*
X025473Y035472D01*
X025433Y035492D01*
X025393Y035472D01*
X025353Y03366D02*
X025393Y03374D01*
X025353Y03382D01*
X025433Y03378D01*
X025513Y03382D01*
X025473Y03374D01*
X025513Y03366D01*
X025433Y0337D01*
X025353Y03366D01*
X025393Y0337D02*
X025413Y03374D01*
X025393Y03378D01*
X025433Y03376D01*
X025473Y03378D01*
X025453Y03374D01*
X025473Y0337D01*
X025433Y03372D01*
X025393Y0337D01*
D83*
X03686Y050189D02*
G03*
X03686Y050189I-00008J0D01*
G01*
Y052189D02*
G03*
X03686Y052189I-00008J0D01*
G01*
Y051189D02*
G03*
X03686Y051189I-00008J0D01*
G01*
Y049189D02*
G03*
X03686Y049189I-00008J0D01*
G01*
X018741Y015906D02*
G03*
X018741Y015906I-00008J0D01*
G01*
X062269Y022972D02*
G03*
X062269Y022972I-00008J0D01*
G01*
Y023972D02*
G03*
X062269Y023972I-00008J0D01*
G01*
Y021972D02*
G03*
X062269Y021972I-00008J0D01*
G01*
X055052Y020201D02*
G03*
X055052Y020201I-00008J0D01*
G01*
Y024201D02*
G03*
X055052Y024201I-00008J0D01*
G01*
Y026201D02*
G03*
X055052Y026201I-00008J0D01*
G01*
Y025201D02*
G03*
X055052Y025201I-00008J0D01*
G01*
Y023201D02*
G03*
X055052Y023201I-00008J0D01*
G01*
Y022201D02*
G03*
X055052Y022201I-00008J0D01*
G01*
Y021201D02*
G03*
X055052Y021201I-00008J0D01*
G01*
X013923Y036614D02*
G03*
X013923Y036614I-00008J0D01*
G01*
X014923D02*
G03*
X014923Y036614I-00008J0D01*
G01*
X03184Y028972D02*
G03*
X03184Y028972I-00008J0D01*
G01*
X03084D02*
G03*
X03084Y028972I-00008J0D01*
G01*
X03184Y031972D02*
G03*
X03184Y031972I-00008J0D01*
G01*
X03084D02*
G03*
X03084Y031972I-00008J0D01*
G01*
D84*
X018701Y015906D02*
G03*
X018701Y015906I-00004J0D01*
G01*
M02*
