M48
;Layer_Color=9474304
;FILE_FORMAT=4:4
METRIC,LZ
;TYPE=PLATED
T1F00S00C0.6000
T2F00S00C0.7000
T3F00S00C0.7112
T4F00S00C0.7874
T5F00S00C0.8000
T6F00S00C0.8128
T7F00S00C0.8890
T8F00S00C0.9000
T9F00S00C0.9906
T11F00S00C1.0160
T12F00S00C1.1430
%
T01
X009593Y001808
Y002062
Y002316
Y00257
Y002824
Y003078
Y003332
Y003586
Y00384
Y004094
Y004348
Y004602
Y004856
Y00511
Y005364
X007053
Y00511
Y004856
Y004602
Y004348
Y004094
Y00384
Y003586
Y003332
Y003078
Y002824
Y00257
Y002316
Y002062
Y001808
X00451Y00627
X00553
T02
X00544Y00419
X00416
X00526Y00297
Y00169
X00095Y0077
Y00848
Y00918
X00223
Y00848
Y0077
Y009945
X00095
T03
X006036Y000698
X005765Y000995
X009804Y00069
X009798Y000507
X010738
X010746Y000673
X00581Y002298
X005818Y002914
X00392Y00602
Y00647
X00469Y00703
X004708Y007704
X004698Y008492
X00469Y00918
Y00993
T04
X0038Y001186
X00452
Y001694
X0038
T05
X011423Y002581
Y002835
Y003089
Y003343
Y003597
Y003851
Y004105
X013256Y003539
Y003285
Y003031
X005527Y004809
X005273
X00123Y00675
X000976
X005273Y005571
X005527
X006802Y009944
Y010198
Y010452
Y010706
T06
X003Y00119
Y001571
X0037Y00279
X004081
X004146Y00529
X0044
X004654
T07
X0033Y00524
Y006002
T08
X009589Y010524
X009843
X010097
X010351
X010605
X010859
X011113
X011367
X011621
X011875
X012129
X012383
X009335
X009081
X008827
X008573
T09
X002046Y00279
X0023
X002554
X00961Y009955
X009864
X010118
X010372
X010626
X01088
X011134
X011388
X011642
X011896
X01215
X012404
X009356
X009102
X008848
X008594
T11
X00527Y0011857
Y0014397
X003554Y00459
X0033
T12
X0022Y00479
X00098
Y0060092
X0022Y00599
X0024Y00539
M30
