G04*
G04 #@! TF.GenerationSoftware,Altium Limited,Altium Designer,21.9.2 (33)*
G04*
G04 Layer_Physical_Order=1*
G04 Layer_Color=255*
%FSTAX24Y24*%
%MOIN*%
G70*
G04*
G04 #@! TF.SameCoordinates,C5A77AB0-E889-4DE2-9FB0-3BE7D8941CBD*
G04*
G04*
G04 #@! TF.FilePolarity,Positive*
G04*
G01*
G75*
%ADD18R,0.0787X0.0787*%
%ADD19R,0.0846X0.0846*%
%ADD45C,0.0591*%
%ADD51C,0.0197*%
%ADD52C,0.0591*%
%ADD53P,0.0704X8X292.5*%
%ADD54C,0.0650*%
%ADD55C,0.0630*%
%ADD56R,0.0630X0.0630*%
%ADD57R,0.0591X0.0591*%
%ADD58O,0.0984X0.0472*%
%ADD59R,0.0984X0.0472*%
%ADD60C,0.1200*%
%ADD61C,0.0800*%
%ADD62R,0.0800X0.0800*%
%ADD63P,0.0704X8X22.5*%
%ADD64C,0.0700*%
%ADD65O,0.1772X0.0984*%
%ADD66O,0.0984X0.1772*%
%ADD67O,0.0984X0.1969*%
%ADD68O,0.0700X0.1000*%
%ADD69R,0.0700X0.1000*%
%ADD70R,0.0800X0.1000*%
%ADD71O,0.0800X0.1000*%
%ADD72R,0.0620X0.0900*%
%ADD73O,0.0620X0.0900*%
%ADD74R,0.0630X0.0630*%
%ADD75C,0.0512*%
%ADD76C,0.0551*%
%ADD77O,0.0660X0.1000*%
%ADD78R,0.1000X0.0700*%
%ADD79O,0.1000X0.0700*%
%ADD80C,0.0500*%
G36*
X074252Y010083D02*
X010205D01*
Y051929D01*
Y053968D01*
X074252D01*
Y010083D01*
D02*
G37*
%LPC*%
G36*
X071839Y053407D02*
X071839Y053407D01*
X037811D01*
X037811Y053407D01*
X037708Y053393D01*
X037611Y053353D01*
X037529Y05329D01*
X037529Y05329D01*
X036846Y052607D01*
X036799D01*
X036799Y052607D01*
X036773Y052604D01*
X036365D01*
Y051774D01*
X037194D01*
Y051857D01*
X037211Y051863D01*
X037293Y051927D01*
X037976Y052609D01*
X071673D01*
X073066Y051217D01*
Y014205D01*
X071295Y012434D01*
X052276D01*
X052172Y012421D01*
X052076Y012381D01*
X051994Y012317D01*
X05193Y012235D01*
X05189Y012139D01*
X051877Y012035D01*
X05189Y011932D01*
X05193Y011836D01*
X051994Y011754D01*
X052076Y01169D01*
X052172Y01165D01*
X052276Y011637D01*
X071461D01*
X071461Y011637D01*
X071564Y01165D01*
X07166Y01169D01*
X071743Y011754D01*
X073746Y013757D01*
X073746Y013757D01*
X07381Y01384D01*
X07385Y013936D01*
X073863Y014039D01*
X073863Y014039D01*
Y051382D01*
X073863Y051382D01*
X07385Y051485D01*
X07381Y051581D01*
X073746Y051664D01*
X07212Y05329D01*
X072038Y053353D01*
X071942Y053393D01*
X07193Y053395D01*
X071839Y053407D01*
D02*
G37*
G36*
X02384Y049632D02*
X022794D01*
Y049395D01*
X019119D01*
X019096Y049436D01*
X019022Y049509D01*
X018932Y049561D01*
X018832Y049588D01*
X018727D01*
X018627Y049561D01*
X018537Y049509D01*
X018463Y049436D01*
X018411Y049345D01*
X018384Y049245D01*
Y049141D01*
X018411Y04904D01*
X018463Y04895D01*
X018537Y048877D01*
X018627Y048825D01*
X018727Y048798D01*
X018832D01*
X018932Y048825D01*
X019022Y048877D01*
X019096Y04895D01*
X019119Y048991D01*
X020851D01*
X022229Y047613D01*
X022295Y047569D01*
X022372Y047554D01*
X033735D01*
X034247Y047042D01*
Y04469D01*
X0342Y044671D01*
X033768Y045104D01*
X033702Y045148D01*
X033625Y045163D01*
X022239D01*
X02147Y045933D01*
X021489Y045979D01*
X022863D01*
Y045697D01*
X023909D01*
Y046744D01*
X022863D01*
Y046383D01*
X019119D01*
X019096Y046424D01*
X019022Y046497D01*
X018932Y046549D01*
X018832Y046576D01*
X018727D01*
X018627Y046549D01*
X018537Y046497D01*
X018463Y046424D01*
X018411Y046334D01*
X018384Y046233D01*
Y046129D01*
X018411Y046029D01*
X018463Y045938D01*
X018537Y045865D01*
X018627Y045813D01*
X018727Y045786D01*
X018832D01*
X018932Y045813D01*
X019022Y045865D01*
X019096Y045938D01*
X019119Y045979D01*
X020851D01*
X022012Y044818D01*
X022078Y044774D01*
X022156Y044758D01*
X033541D01*
X03395Y04435D01*
Y04172D01*
X033903Y0417D01*
X033492Y042112D01*
X033427Y042155D01*
X033349Y042171D01*
X022476D01*
X02147Y043177D01*
X021489Y043223D01*
X022813D01*
Y042991D01*
X02386D01*
Y044037D01*
X022813D01*
Y043628D01*
X019119D01*
X019096Y043668D01*
X019022Y043741D01*
X018932Y043794D01*
X018832Y04382D01*
X018727D01*
X018627Y043794D01*
X018537Y043741D01*
X018463Y043668D01*
X018411Y043578D01*
X018384Y043477D01*
Y043373D01*
X018411Y043273D01*
X018463Y043182D01*
X018537Y043109D01*
X018627Y043057D01*
X018727Y04303D01*
X018832D01*
X018932Y043057D01*
X019022Y043109D01*
X019096Y043182D01*
X019119Y043223D01*
X020851D01*
X022249Y041825D01*
X022314Y041782D01*
X022392Y041766D01*
X033265D01*
X033653Y041379D01*
Y038473D01*
X033607Y038454D01*
X033138Y038923D01*
X033072Y038966D01*
X032995Y038982D01*
X022594D01*
X02147Y040106D01*
X021489Y040152D01*
X022882D01*
Y039886D01*
X023929D01*
Y040933D01*
X022882D01*
Y040557D01*
X019119D01*
X019096Y040597D01*
X019022Y040671D01*
X018932Y040723D01*
X018832Y04075D01*
X018727D01*
X018627Y040723D01*
X018537Y040671D01*
X018463Y040597D01*
X018411Y040507D01*
X018384Y040406D01*
Y040302D01*
X018411Y040202D01*
X018463Y040112D01*
X018537Y040038D01*
X018627Y039986D01*
X018727Y039959D01*
X018832D01*
X018932Y039986D01*
X019022Y040038D01*
X019096Y040112D01*
X019119Y040152D01*
X020851D01*
X022367Y038636D01*
X022432Y038593D01*
X02251Y038577D01*
X032911D01*
X033345Y038143D01*
Y021681D01*
X03336Y021603D01*
X033404Y021538D01*
X033943Y020999D01*
X034009Y020955D01*
X034086Y020939D01*
X037255D01*
X037272Y020918D01*
X037342Y020864D01*
X037424Y02083D01*
X037512Y020818D01*
X038024D01*
X038111Y02083D01*
X038193Y020864D01*
X038263Y020918D01*
X038317Y020988D01*
X038351Y02107D01*
X038363Y021157D01*
X038351Y021245D01*
X038317Y021327D01*
X038263Y021397D01*
X038193Y021451D01*
X038111Y021485D01*
X038024Y021497D01*
X037512D01*
X037424Y021485D01*
X037342Y021451D01*
X037272Y021397D01*
X037231Y021344D01*
X03417D01*
X03375Y021765D01*
Y022403D01*
X033796Y022422D01*
X034203Y022014D01*
X034269Y021971D01*
X034346Y021955D01*
X037243D01*
X037272Y021918D01*
X037342Y021864D01*
X037424Y02183D01*
X037512Y021818D01*
X038024D01*
X038111Y02183D01*
X038193Y021864D01*
X038263Y021918D01*
X038317Y021988D01*
X038351Y02207D01*
X038363Y022157D01*
X038351Y022245D01*
X038317Y022327D01*
X038263Y022397D01*
X038193Y022451D01*
X038111Y022485D01*
X038024Y022497D01*
X037512D01*
X037424Y022485D01*
X037342Y022451D01*
X037272Y022397D01*
X037243Y02236D01*
X03443D01*
X034057Y022733D01*
Y023375D01*
X034104Y023394D01*
X034436Y023062D01*
X034501Y023018D01*
X034579Y023002D01*
X037212D01*
X037218Y022988D01*
X037272Y022918D01*
X037342Y022864D01*
X037424Y02283D01*
X037512Y022818D01*
X038024D01*
X038111Y02283D01*
X038193Y022864D01*
X038263Y022918D01*
X038317Y022988D01*
X038351Y02307D01*
X038363Y023157D01*
X038351Y023245D01*
X038317Y023327D01*
X038263Y023397D01*
X038193Y023451D01*
X038111Y023485D01*
X038024Y023497D01*
X037512D01*
X037424Y023485D01*
X037342Y023451D01*
X037285Y023407D01*
X034663D01*
X034354Y023715D01*
Y024259D01*
X0344Y024278D01*
X034676Y024003D01*
X034741Y023959D01*
X034819Y023943D01*
X037252D01*
X037272Y023918D01*
X037342Y023864D01*
X037424Y02383D01*
X037512Y023818D01*
X038024D01*
X038111Y02383D01*
X038193Y023864D01*
X038263Y023918D01*
X038317Y023988D01*
X038351Y02407D01*
X038363Y024157D01*
X038351Y024245D01*
X038317Y024327D01*
X038263Y024397D01*
X038193Y024451D01*
X038111Y024485D01*
X038024Y024497D01*
X037512D01*
X037424Y024485D01*
X037342Y024451D01*
X037272Y024397D01*
X037234Y024348D01*
X034903D01*
X034651Y0246D01*
Y047126D01*
X034636Y047203D01*
X034592Y047269D01*
X033962Y047899D01*
X033896Y047943D01*
X033819Y047958D01*
X022456D01*
X02147Y048944D01*
X021489Y048991D01*
X022794D01*
Y048585D01*
X02384D01*
Y049632D01*
D02*
G37*
G36*
X036834Y049604D02*
X03683D01*
Y049239D01*
X037194D01*
Y049244D01*
X037166Y049349D01*
X037112Y049444D01*
X037034Y049521D01*
X03694Y049576D01*
X036834Y049604D01*
D02*
G37*
G36*
X03673D02*
X036725D01*
X036619Y049576D01*
X036525Y049521D01*
X036447Y049444D01*
X036393Y049349D01*
X036365Y049244D01*
Y049239D01*
X03673D01*
Y049604D01*
D02*
G37*
G36*
X028515Y049483D02*
Y049184D01*
X028814D01*
X028791Y049269D01*
X028745Y049349D01*
X028679Y049414D01*
X0286Y04946D01*
X028515Y049483D01*
D02*
G37*
G36*
X028415D02*
X028329Y04946D01*
X02825Y049414D01*
X028184Y049349D01*
X028138Y049269D01*
X028116Y049184D01*
X028415D01*
Y049483D01*
D02*
G37*
G36*
X027157Y049602D02*
X026713D01*
Y049158D01*
X027157D01*
Y049602D01*
D02*
G37*
G36*
X026613D02*
X02617D01*
Y049158D01*
X026613D01*
Y049602D01*
D02*
G37*
G36*
X013792Y049588D02*
X013688D01*
X013588Y049561D01*
X013497Y049509D01*
X013424Y049436D01*
X013401Y049395D01*
X011988D01*
X011911Y04938D01*
X011845Y049336D01*
X010762Y048253D01*
X010719Y048188D01*
X010703Y04811D01*
Y046091D01*
X010624Y04603D01*
X01056Y045947D01*
X01052Y045851D01*
X010507Y045748D01*
Y045079D01*
Y042205D01*
Y04185D01*
Y039173D01*
Y012205D01*
X010507Y012205D01*
X01052Y012102D01*
X01056Y012005D01*
X010624Y011923D01*
X01188Y010667D01*
X01188Y010667D01*
X011962Y010604D01*
X012058Y010564D01*
X012161Y01055D01*
X049405D01*
X049406Y01055D01*
X049509Y010564D01*
X049605Y010604D01*
X049687Y010667D01*
X050782Y011761D01*
X050782Y011761D01*
X050845Y011844D01*
X050885Y01194D01*
X050899Y012043D01*
X050899Y012043D01*
Y016571D01*
X050885Y016674D01*
X050867Y016717D01*
X050895Y016759D01*
X059453D01*
X059453Y016759D01*
X059556Y016772D01*
X059652Y016812D01*
X059735Y016876D01*
X062471Y019612D01*
X062471Y019612D01*
X062534Y019694D01*
X062574Y019791D01*
X062588Y019894D01*
Y021557D01*
X062604D01*
Y022387D01*
X061774D01*
Y021557D01*
X06179D01*
Y020059D01*
X059288Y017556D01*
X049913D01*
X049913Y017556D01*
X049913Y017556D01*
X047768D01*
X047665Y017543D01*
X047568Y017503D01*
X04756Y017497D01*
X047512D01*
X047424Y017485D01*
X047342Y017451D01*
X047272Y017397D01*
X047218Y017327D01*
X047184Y017245D01*
X047173Y017157D01*
X047184Y01707D01*
X047218Y016988D01*
X047272Y016918D01*
X047342Y016864D01*
X047424Y01683D01*
X047512Y016818D01*
X04756D01*
X047568Y016812D01*
X047665Y016772D01*
X047768Y016759D01*
X049748D01*
X050101Y016406D01*
Y012208D01*
X04924Y011348D01*
X012327D01*
X011304Y01237D01*
Y039173D01*
Y039286D01*
X01217Y040152D01*
X013401D01*
X013424Y040112D01*
X013497Y040038D01*
X013588Y039986D01*
X013688Y039959D01*
X013792D01*
X013893Y039986D01*
X013983Y040038D01*
X014056Y040112D01*
X014108Y040202D01*
X014135Y040302D01*
Y040406D01*
X014108Y040507D01*
X014056Y040597D01*
X013983Y040671D01*
X013893Y040723D01*
X013792Y04075D01*
X013688D01*
X013588Y040723D01*
X013497Y040671D01*
X013424Y040597D01*
X013401Y040557D01*
X012087D01*
X012009Y040541D01*
X011944Y040497D01*
X01135Y039904D01*
X011304Y039923D01*
Y04185D01*
Y042317D01*
X01221Y043223D01*
X013401D01*
X013424Y043182D01*
X013497Y043109D01*
X013588Y043057D01*
X013688Y04303D01*
X013792D01*
X013893Y043057D01*
X013983Y043109D01*
X014056Y043182D01*
X014108Y043273D01*
X014135Y043373D01*
Y043477D01*
X014108Y043578D01*
X014056Y043668D01*
X013983Y043741D01*
X013893Y043794D01*
X013792Y04382D01*
X013688D01*
X013588Y043794D01*
X013497Y043741D01*
X013424Y043668D01*
X013401Y043628D01*
X012126D01*
X012049Y043612D01*
X011983Y043568D01*
X01135Y042936D01*
X011304Y042955D01*
Y045079D01*
Y045191D01*
X012092Y045979D01*
X013401D01*
X013424Y045938D01*
X013497Y045865D01*
X013588Y045813D01*
X013688Y045786D01*
X013792D01*
X013893Y045813D01*
X013983Y045865D01*
X014056Y045938D01*
X014108Y046029D01*
X014135Y046129D01*
Y046233D01*
X014108Y046334D01*
X014056Y046424D01*
X013983Y046497D01*
X013893Y046549D01*
X013792Y046576D01*
X013688D01*
X013588Y046549D01*
X013497Y046497D01*
X013424Y046424D01*
X013401Y046383D01*
X012008D01*
X01193Y046368D01*
X011865Y046324D01*
X011342Y045802D01*
X011295Y045818D01*
X011291Y045851D01*
X011251Y045947D01*
X011187Y04603D01*
X011108Y046091D01*
Y048026D01*
X012072Y048991D01*
X013401D01*
X013424Y04895D01*
X013497Y048877D01*
X013588Y048825D01*
X013688Y048798D01*
X013792D01*
X013893Y048825D01*
X013983Y048877D01*
X014056Y04895D01*
X014108Y04904D01*
X014135Y049141D01*
Y049245D01*
X014108Y049345D01*
X014056Y049436D01*
X013983Y049509D01*
X013893Y049561D01*
X013792Y049588D01*
D02*
G37*
G36*
X028814Y049084D02*
X028515D01*
Y048785D01*
X0286Y048808D01*
X028679Y048854D01*
X028745Y048919D01*
X028791Y048999D01*
X028814Y049084D01*
D02*
G37*
G36*
X028415D02*
X028116D01*
X028138Y048999D01*
X028184Y048919D01*
X02825Y048854D01*
X028329Y048808D01*
X028415Y048785D01*
Y049084D01*
D02*
G37*
G36*
X037194Y049139D02*
X03683D01*
Y048774D01*
X036834D01*
X03694Y048802D01*
X037034Y048857D01*
X037112Y048934D01*
X037166Y049029D01*
X037194Y049134D01*
Y049139D01*
D02*
G37*
G36*
X03673D02*
X036365D01*
Y049134D01*
X036393Y049029D01*
X036447Y048934D01*
X036525Y048857D01*
X036619Y048802D01*
X036725Y048774D01*
X03673D01*
Y049139D01*
D02*
G37*
G36*
X043804Y051868D02*
X0437D01*
X043599Y051841D01*
X043509Y051789D01*
X043436Y051715D01*
X043384Y051625D01*
X043357Y051524D01*
Y05142D01*
X043384Y05132D01*
X043436Y05123D01*
X043509Y051156D01*
X04355Y051133D01*
Y049782D01*
X043425D01*
Y048682D01*
X044245D01*
Y049782D01*
X043954D01*
Y051133D01*
X043995Y051156D01*
X044068Y05123D01*
X04412Y05132D01*
X044147Y05142D01*
Y051524D01*
X04412Y051625D01*
X044068Y051715D01*
X043995Y051789D01*
X043905Y051841D01*
X043804Y051868D01*
D02*
G37*
G36*
X059147D02*
X058357D01*
Y051077D01*
X058632D01*
Y049732D01*
X058628Y04973D01*
X058542Y049665D01*
X058477Y049579D01*
X058435Y049479D01*
X058421Y049372D01*
Y049092D01*
X058435Y048985D01*
X058477Y048886D01*
X058542Y0488D01*
X058628Y048734D01*
X058728Y048693D01*
X058835Y048679D01*
X058942Y048693D01*
X059041Y048734D01*
X059127Y0488D01*
X059193Y048886D01*
X059234Y048985D01*
X059248Y049092D01*
Y049372D01*
X059234Y049479D01*
X059193Y049579D01*
X059127Y049665D01*
X059041Y04973D01*
X059037Y049732D01*
Y051077D01*
X059147D01*
Y051868D01*
D02*
G37*
G36*
X057804D02*
X0577D01*
X057599Y051841D01*
X057509Y051789D01*
X057436Y051715D01*
X057384Y051625D01*
X057357Y051524D01*
Y05142D01*
X057384Y05132D01*
X057436Y05123D01*
X057509Y051156D01*
X057591Y051109D01*
Y049702D01*
X057542Y049665D01*
X057477Y049579D01*
X057435Y049479D01*
X057421Y049372D01*
Y049092D01*
X057435Y048985D01*
X057477Y048886D01*
X057542Y0488D01*
X057628Y048734D01*
X057728Y048693D01*
X057835Y048679D01*
X057942Y048693D01*
X058041Y048734D01*
X058127Y0488D01*
X058193Y048886D01*
X058234Y048985D01*
X058248Y049092D01*
Y049372D01*
X058234Y049479D01*
X058193Y049579D01*
X058127Y049665D01*
X058041Y04973D01*
X057996Y049749D01*
Y051157D01*
X058068Y05123D01*
X05812Y05132D01*
X058147Y05142D01*
Y051524D01*
X05812Y051625D01*
X058068Y051715D01*
X057995Y051789D01*
X057905Y051841D01*
X057804Y051868D01*
D02*
G37*
G36*
X056804D02*
X0567D01*
X056599Y051841D01*
X056509Y051789D01*
X056436Y051715D01*
X056384Y051625D01*
X056357Y051524D01*
Y05142D01*
X056384Y05132D01*
X056436Y05123D01*
X056509Y051156D01*
X056591Y051109D01*
Y049702D01*
X056542Y049665D01*
X056477Y049579D01*
X056435Y049479D01*
X056421Y049372D01*
Y049092D01*
X056435Y048985D01*
X056477Y048886D01*
X056542Y0488D01*
X056628Y048734D01*
X056728Y048693D01*
X056835Y048679D01*
X056942Y048693D01*
X057041Y048734D01*
X057127Y0488D01*
X057193Y048886D01*
X057234Y048985D01*
X057248Y049092D01*
Y049372D01*
X057234Y049479D01*
X057193Y049579D01*
X057127Y049665D01*
X057041Y04973D01*
X056996Y049749D01*
Y051157D01*
X057068Y05123D01*
X05712Y05132D01*
X057147Y05142D01*
Y051524D01*
X05712Y051625D01*
X057068Y051715D01*
X056995Y051789D01*
X056905Y051841D01*
X056804Y051868D01*
D02*
G37*
G36*
X055804D02*
X0557D01*
X055599Y051841D01*
X055509Y051789D01*
X055436Y051715D01*
X055384Y051625D01*
X055357Y051524D01*
Y05142D01*
X055384Y05132D01*
X055436Y05123D01*
X055509Y051156D01*
X055591Y051109D01*
Y049702D01*
X055542Y049665D01*
X055477Y049579D01*
X055435Y049479D01*
X055421Y049372D01*
Y049092D01*
X055435Y048985D01*
X055477Y048886D01*
X055542Y0488D01*
X055628Y048734D01*
X055728Y048693D01*
X055835Y048679D01*
X055942Y048693D01*
X056041Y048734D01*
X056127Y0488D01*
X056193Y048886D01*
X056234Y048985D01*
X056248Y049092D01*
Y049372D01*
X056234Y049479D01*
X056193Y049579D01*
X056127Y049665D01*
X056041Y04973D01*
X055996Y049749D01*
Y051157D01*
X056068Y05123D01*
X05612Y05132D01*
X056147Y05142D01*
Y051524D01*
X05612Y051625D01*
X056068Y051715D01*
X055995Y051789D01*
X055905Y051841D01*
X055804Y051868D01*
D02*
G37*
G36*
X054804D02*
X0547D01*
X054599Y051841D01*
X054509Y051789D01*
X054436Y051715D01*
X054384Y051625D01*
X054357Y051524D01*
Y05142D01*
X054384Y05132D01*
X054436Y05123D01*
X054509Y051156D01*
X054591Y051109D01*
Y049702D01*
X054542Y049665D01*
X054477Y049579D01*
X054435Y049479D01*
X054421Y049372D01*
Y049092D01*
X054435Y048985D01*
X054477Y048886D01*
X054542Y0488D01*
X054628Y048734D01*
X054728Y048693D01*
X054835Y048679D01*
X054942Y048693D01*
X055041Y048734D01*
X055127Y0488D01*
X055193Y048886D01*
X055234Y048985D01*
X055248Y049092D01*
Y049372D01*
X055234Y049479D01*
X055193Y049579D01*
X055127Y049665D01*
X055041Y04973D01*
X054996Y049749D01*
Y051157D01*
X055068Y05123D01*
X05512Y05132D01*
X055147Y05142D01*
Y051524D01*
X05512Y051625D01*
X055068Y051715D01*
X054995Y051789D01*
X054905Y051841D01*
X054804Y051868D01*
D02*
G37*
G36*
X053804D02*
X0537D01*
X053599Y051841D01*
X053509Y051789D01*
X053436Y051715D01*
X053384Y051625D01*
X053357Y051524D01*
Y05142D01*
X053384Y05132D01*
X053436Y05123D01*
X053509Y051156D01*
X053591Y051109D01*
Y049702D01*
X053542Y049665D01*
X053477Y049579D01*
X053435Y049479D01*
X053421Y049372D01*
Y049092D01*
X053435Y048985D01*
X053477Y048886D01*
X053542Y0488D01*
X053628Y048734D01*
X053728Y048693D01*
X053835Y048679D01*
X053942Y048693D01*
X054041Y048734D01*
X054127Y0488D01*
X054193Y048886D01*
X054234Y048985D01*
X054248Y049092D01*
Y049372D01*
X054234Y049479D01*
X054193Y049579D01*
X054127Y049665D01*
X054041Y04973D01*
X053996Y049749D01*
Y051157D01*
X054068Y05123D01*
X05412Y05132D01*
X054147Y05142D01*
Y051524D01*
X05412Y051625D01*
X054068Y051715D01*
X053995Y051789D01*
X053905Y051841D01*
X053804Y051868D01*
D02*
G37*
G36*
X052804D02*
X0527D01*
X052599Y051841D01*
X052509Y051789D01*
X052436Y051715D01*
X052384Y051625D01*
X052357Y051524D01*
Y05142D01*
X052384Y05132D01*
X052436Y05123D01*
X052509Y051156D01*
X052591Y051109D01*
Y049702D01*
X052542Y049665D01*
X052477Y049579D01*
X052435Y049479D01*
X052421Y049372D01*
Y049092D01*
X052435Y048985D01*
X052477Y048886D01*
X052542Y0488D01*
X052628Y048734D01*
X052728Y048693D01*
X052835Y048679D01*
X052942Y048693D01*
X053041Y048734D01*
X053127Y0488D01*
X053193Y048886D01*
X053234Y048985D01*
X053248Y049092D01*
Y049372D01*
X053234Y049479D01*
X053193Y049579D01*
X053127Y049665D01*
X053041Y04973D01*
X052996Y049749D01*
Y051157D01*
X053068Y05123D01*
X05312Y05132D01*
X053147Y05142D01*
Y051524D01*
X05312Y051625D01*
X053068Y051715D01*
X052995Y051789D01*
X052905Y051841D01*
X052804Y051868D01*
D02*
G37*
G36*
X051804D02*
X0517D01*
X051599Y051841D01*
X051509Y051789D01*
X051436Y051715D01*
X051384Y051625D01*
X051357Y051524D01*
Y05142D01*
X051384Y05132D01*
X051436Y05123D01*
X051509Y051156D01*
X051591Y051109D01*
Y049702D01*
X051542Y049665D01*
X051477Y049579D01*
X051435Y049479D01*
X051421Y049372D01*
Y049092D01*
X051435Y048985D01*
X051477Y048886D01*
X051542Y0488D01*
X051628Y048734D01*
X051728Y048693D01*
X051835Y048679D01*
X051942Y048693D01*
X052041Y048734D01*
X052127Y0488D01*
X052193Y048886D01*
X052234Y048985D01*
X052248Y049092D01*
Y049372D01*
X052234Y049479D01*
X052193Y049579D01*
X052127Y049665D01*
X052041Y04973D01*
X051996Y049749D01*
Y051157D01*
X052068Y05123D01*
X05212Y05132D01*
X052147Y05142D01*
Y051524D01*
X05212Y051625D01*
X052068Y051715D01*
X051995Y051789D01*
X051905Y051841D01*
X051804Y051868D01*
D02*
G37*
G36*
X050804D02*
X0507D01*
X050599Y051841D01*
X050509Y051789D01*
X050436Y051715D01*
X050384Y051625D01*
X050357Y051524D01*
Y05142D01*
X050384Y05132D01*
X050436Y05123D01*
X050509Y051156D01*
X050591Y051109D01*
Y049702D01*
X050542Y049665D01*
X050477Y049579D01*
X050435Y049479D01*
X050421Y049372D01*
Y049092D01*
X050435Y048985D01*
X050477Y048886D01*
X050542Y0488D01*
X050628Y048734D01*
X050728Y048693D01*
X050835Y048679D01*
X050942Y048693D01*
X051041Y048734D01*
X051127Y0488D01*
X051193Y048886D01*
X051234Y048985D01*
X051248Y049092D01*
Y049372D01*
X051234Y049479D01*
X051193Y049579D01*
X051127Y049665D01*
X051041Y04973D01*
X050996Y049749D01*
Y051157D01*
X051068Y05123D01*
X05112Y05132D01*
X051147Y05142D01*
Y051524D01*
X05112Y051625D01*
X051068Y051715D01*
X050995Y051789D01*
X050905Y051841D01*
X050804Y051868D01*
D02*
G37*
G36*
X049804D02*
X0497D01*
X049599Y051841D01*
X049509Y051789D01*
X049436Y051715D01*
X049384Y051625D01*
X049357Y051524D01*
Y05142D01*
X049384Y05132D01*
X049436Y05123D01*
X049509Y051156D01*
X049591Y051109D01*
Y049702D01*
X049542Y049665D01*
X049477Y049579D01*
X049435Y049479D01*
X049421Y049372D01*
Y049092D01*
X049435Y048985D01*
X049477Y048886D01*
X049542Y0488D01*
X049628Y048734D01*
X049728Y048693D01*
X049835Y048679D01*
X049942Y048693D01*
X050041Y048734D01*
X050127Y0488D01*
X050193Y048886D01*
X050234Y048985D01*
X050248Y049092D01*
Y049372D01*
X050234Y049479D01*
X050193Y049579D01*
X050127Y049665D01*
X050041Y04973D01*
X049996Y049749D01*
Y051157D01*
X050068Y05123D01*
X05012Y05132D01*
X050147Y05142D01*
Y051524D01*
X05012Y051625D01*
X050068Y051715D01*
X049995Y051789D01*
X049905Y051841D01*
X049804Y051868D01*
D02*
G37*
G36*
X048804D02*
X0487D01*
X048599Y051841D01*
X048509Y051789D01*
X048436Y051715D01*
X048384Y051625D01*
X048357Y051524D01*
Y05142D01*
X048384Y05132D01*
X048436Y05123D01*
X048509Y051156D01*
X048591Y051109D01*
Y049702D01*
X048542Y049665D01*
X048477Y049579D01*
X048435Y049479D01*
X048421Y049372D01*
Y049092D01*
X048435Y048985D01*
X048477Y048886D01*
X048542Y0488D01*
X048628Y048734D01*
X048728Y048693D01*
X048835Y048679D01*
X048942Y048693D01*
X049041Y048734D01*
X049127Y0488D01*
X049193Y048886D01*
X049234Y048985D01*
X049248Y049092D01*
Y049372D01*
X049234Y049479D01*
X049193Y049579D01*
X049127Y049665D01*
X049041Y04973D01*
X048996Y049749D01*
Y051157D01*
X049068Y05123D01*
X04912Y05132D01*
X049147Y05142D01*
Y051524D01*
X04912Y051625D01*
X049068Y051715D01*
X048995Y051789D01*
X048905Y051841D01*
X048804Y051868D01*
D02*
G37*
G36*
X047804D02*
X0477D01*
X047599Y051841D01*
X047509Y051789D01*
X047436Y051715D01*
X047384Y051625D01*
X047357Y051524D01*
Y05142D01*
X047384Y05132D01*
X047436Y05123D01*
X047509Y051156D01*
X047591Y051109D01*
Y049702D01*
X047542Y049665D01*
X047477Y049579D01*
X047435Y049479D01*
X047421Y049372D01*
Y049092D01*
X047435Y048985D01*
X047477Y048886D01*
X047542Y0488D01*
X047628Y048734D01*
X047728Y048693D01*
X047835Y048679D01*
X047942Y048693D01*
X048041Y048734D01*
X048127Y0488D01*
X048193Y048886D01*
X048234Y048985D01*
X048248Y049092D01*
Y049372D01*
X048234Y049479D01*
X048193Y049579D01*
X048127Y049665D01*
X048041Y04973D01*
X047996Y049749D01*
Y051157D01*
X048068Y05123D01*
X04812Y05132D01*
X048147Y05142D01*
Y051524D01*
X04812Y051625D01*
X048068Y051715D01*
X047995Y051789D01*
X047905Y051841D01*
X047804Y051868D01*
D02*
G37*
G36*
X046804D02*
X0467D01*
X046599Y051841D01*
X046509Y051789D01*
X046436Y051715D01*
X046384Y051625D01*
X046357Y051524D01*
Y05142D01*
X046384Y05132D01*
X046436Y05123D01*
X046509Y051156D01*
X046591Y051109D01*
Y049702D01*
X046542Y049665D01*
X046477Y049579D01*
X046435Y049479D01*
X046421Y049372D01*
Y049092D01*
X046435Y048985D01*
X046477Y048886D01*
X046542Y0488D01*
X046628Y048734D01*
X046728Y048693D01*
X046835Y048679D01*
X046942Y048693D01*
X047041Y048734D01*
X047127Y0488D01*
X047193Y048886D01*
X047234Y048985D01*
X047248Y049092D01*
Y049372D01*
X047234Y049479D01*
X047193Y049579D01*
X047127Y049665D01*
X047041Y04973D01*
X046996Y049749D01*
Y051157D01*
X047068Y05123D01*
X04712Y05132D01*
X047147Y05142D01*
Y051524D01*
X04712Y051625D01*
X047068Y051715D01*
X046995Y051789D01*
X046905Y051841D01*
X046804Y051868D01*
D02*
G37*
G36*
X045804D02*
X0457D01*
X045599Y051841D01*
X045509Y051789D01*
X045436Y051715D01*
X045384Y051625D01*
X045357Y051524D01*
Y05142D01*
X045384Y05132D01*
X045436Y05123D01*
X045509Y051156D01*
X045591Y051109D01*
Y049702D01*
X045542Y049665D01*
X045477Y049579D01*
X045435Y049479D01*
X045421Y049372D01*
Y049092D01*
X045435Y048985D01*
X045477Y048886D01*
X045542Y0488D01*
X045628Y048734D01*
X045728Y048693D01*
X045835Y048679D01*
X045942Y048693D01*
X046041Y048734D01*
X046127Y0488D01*
X046193Y048886D01*
X046234Y048985D01*
X046248Y049092D01*
Y049372D01*
X046234Y049479D01*
X046193Y049579D01*
X046127Y049665D01*
X046041Y04973D01*
X045996Y049749D01*
Y051157D01*
X046068Y05123D01*
X04612Y05132D01*
X046147Y05142D01*
Y051524D01*
X04612Y051625D01*
X046068Y051715D01*
X045995Y051789D01*
X045905Y051841D01*
X045804Y051868D01*
D02*
G37*
G36*
X044804D02*
X0447D01*
X044599Y051841D01*
X044509Y051789D01*
X044436Y051715D01*
X044384Y051625D01*
X044357Y051524D01*
Y05142D01*
X044384Y05132D01*
X044436Y05123D01*
X044509Y051156D01*
X044591Y051109D01*
Y049702D01*
X044542Y049665D01*
X044477Y049579D01*
X044435Y049479D01*
X044421Y049372D01*
Y049092D01*
X044435Y048985D01*
X044477Y048886D01*
X044542Y0488D01*
X044628Y048734D01*
X044728Y048693D01*
X044835Y048679D01*
X044942Y048693D01*
X045041Y048734D01*
X045127Y0488D01*
X045193Y048886D01*
X045234Y048985D01*
X045248Y049092D01*
Y049372D01*
X045234Y049479D01*
X045193Y049579D01*
X045127Y049665D01*
X045041Y04973D01*
X044996Y049749D01*
Y051157D01*
X045068Y05123D01*
X04512Y05132D01*
X045147Y05142D01*
Y051524D01*
X04512Y051625D01*
X045068Y051715D01*
X044995Y051789D01*
X044905Y051841D01*
X044804Y051868D01*
D02*
G37*
G36*
X027157Y049058D02*
X026713D01*
Y048615D01*
X027157D01*
Y049058D01*
D02*
G37*
G36*
X026613D02*
X02617D01*
Y048615D01*
X026613D01*
Y049058D01*
D02*
G37*
G36*
X027226Y046714D02*
X026782D01*
Y04627D01*
X027226D01*
Y046714D01*
D02*
G37*
G36*
X026682D02*
X026239D01*
Y04627D01*
X026682D01*
Y046714D01*
D02*
G37*
G36*
X028515Y04653D02*
Y046231D01*
X028814D01*
X028791Y046316D01*
X028745Y046396D01*
X028679Y046461D01*
X0286Y046507D01*
X028515Y04653D01*
D02*
G37*
G36*
X028415D02*
X028329Y046507D01*
X02825Y046461D01*
X028184Y046396D01*
X028138Y046316D01*
X028116Y046231D01*
X028415D01*
Y04653D01*
D02*
G37*
G36*
X028814Y046131D02*
X028515D01*
Y045832D01*
X0286Y045855D01*
X028679Y045901D01*
X028745Y045966D01*
X028791Y046046D01*
X028814Y046131D01*
D02*
G37*
G36*
X028415D02*
X028116D01*
X028138Y046046D01*
X028184Y045966D01*
X02825Y045901D01*
X028329Y045855D01*
X028415Y045832D01*
Y046131D01*
D02*
G37*
G36*
X027226Y04617D02*
X026782D01*
Y045727D01*
X027226D01*
Y04617D01*
D02*
G37*
G36*
X026682D02*
X026239D01*
Y045727D01*
X026682D01*
Y04617D01*
D02*
G37*
G36*
X027177Y044007D02*
X026733D01*
Y043564D01*
X027177D01*
Y044007D01*
D02*
G37*
G36*
X026633D02*
X026189D01*
Y043564D01*
X026633D01*
Y044007D01*
D02*
G37*
G36*
X028546Y043821D02*
Y043522D01*
X028845D01*
X028822Y043608D01*
X028776Y043687D01*
X028711Y043753D01*
X028631Y043799D01*
X028546Y043821D01*
D02*
G37*
G36*
X028446D02*
X028361Y043799D01*
X028281Y043753D01*
X028216Y043687D01*
X02817Y043608D01*
X028147Y043522D01*
X028446D01*
Y043821D01*
D02*
G37*
G36*
X028845Y043422D02*
X028546D01*
Y043123D01*
X028631Y043146D01*
X028711Y043192D01*
X028776Y043258D01*
X028822Y043337D01*
X028845Y043422D01*
D02*
G37*
G36*
X028446D02*
X028147D01*
X02817Y043337D01*
X028216Y043258D01*
X028281Y043192D01*
X028361Y043146D01*
X028446Y043123D01*
Y043422D01*
D02*
G37*
G36*
X027177Y043464D02*
X026733D01*
Y04302D01*
X027177D01*
Y043464D01*
D02*
G37*
G36*
X026633D02*
X026189D01*
Y04302D01*
X026633D01*
Y043464D01*
D02*
G37*
G36*
X027246Y040903D02*
X026802D01*
Y040459D01*
X027246D01*
Y040903D01*
D02*
G37*
G36*
X026702D02*
X026258D01*
Y040459D01*
X026702D01*
Y040903D01*
D02*
G37*
G36*
X028585Y040719D02*
Y04042D01*
X028884D01*
X028862Y040505D01*
X028816Y040585D01*
X02875Y04065D01*
X028671Y040696D01*
X028585Y040719D01*
D02*
G37*
G36*
X028485D02*
X0284Y040696D01*
X028321Y04065D01*
X028255Y040585D01*
X028209Y040505D01*
X028186Y04042D01*
X028485D01*
Y040719D01*
D02*
G37*
G36*
X028884Y04032D02*
X028585D01*
Y040021D01*
X028671Y040044D01*
X02875Y04009D01*
X028816Y040155D01*
X028862Y040235D01*
X028884Y04032D01*
D02*
G37*
G36*
X028485D02*
X028186D01*
X028209Y040235D01*
X028255Y040155D01*
X028321Y04009D01*
X0284Y040044D01*
X028485Y040021D01*
Y04032D01*
D02*
G37*
G36*
X027246Y040359D02*
X026802D01*
Y039916D01*
X027246D01*
Y040359D01*
D02*
G37*
G36*
X026702D02*
X026258D01*
Y039916D01*
X026702D01*
Y040359D01*
D02*
G37*
G36*
X028515Y038065D02*
Y037767D01*
X028814D01*
X028791Y037852D01*
X028745Y037931D01*
X028679Y037997D01*
X0286Y038043D01*
X028515Y038065D01*
D02*
G37*
G36*
X028415D02*
X028329Y038043D01*
X02825Y037997D01*
X028184Y037931D01*
X028138Y037852D01*
X028116Y037767D01*
X028415D01*
Y038065D01*
D02*
G37*
G36*
X028814Y037667D02*
X028515D01*
Y037368D01*
X0286Y03739D01*
X028679Y037436D01*
X028745Y037502D01*
X028791Y037581D01*
X028814Y037667D01*
D02*
G37*
G36*
X028415D02*
X028116D01*
X028138Y037581D01*
X028184Y037502D01*
X02825Y037436D01*
X028329Y03739D01*
X028415Y037368D01*
Y037667D01*
D02*
G37*
G36*
X014897Y037029D02*
X014893D01*
Y036664D01*
X015257D01*
Y036669D01*
X015229Y036774D01*
X015175Y036869D01*
X015097Y036946D01*
X015003Y037001D01*
X014897Y037029D01*
D02*
G37*
G36*
X014793D02*
X014788D01*
X014682Y037001D01*
X014588Y036946D01*
X01451Y036869D01*
X014456Y036774D01*
X014428Y036669D01*
Y036664D01*
X014793D01*
Y037029D01*
D02*
G37*
G36*
X015257Y036564D02*
X014893D01*
Y036199D01*
X014897D01*
X015003Y036227D01*
X015097Y036282D01*
X015175Y036359D01*
X015229Y036454D01*
X015257Y03656D01*
Y036564D01*
D02*
G37*
G36*
X014793D02*
X014428D01*
Y03656D01*
X014456Y036454D01*
X01451Y036359D01*
X014588Y036282D01*
X014682Y036227D01*
X014788Y036199D01*
X014793D01*
Y036564D01*
D02*
G37*
G36*
X025483Y035861D02*
Y035562D01*
X025782D01*
X025759Y035647D01*
X025713Y035727D01*
X025648Y035792D01*
X025568Y035838D01*
X025483Y035861D01*
D02*
G37*
G36*
X025383D02*
X025298Y035838D01*
X025218Y035792D01*
X025153Y035727D01*
X025107Y035647D01*
X025084Y035562D01*
X025383D01*
Y035861D01*
D02*
G37*
G36*
X025782Y035462D02*
X025483D01*
Y035163D01*
X025568Y035186D01*
X025648Y035232D01*
X025713Y035297D01*
X025759Y035377D01*
X025782Y035462D01*
D02*
G37*
G36*
X025383D02*
X025084D01*
X025107Y035377D01*
X025153Y035297D01*
X025218Y035232D01*
X025298Y035186D01*
X025383Y035163D01*
Y035462D01*
D02*
G37*
G36*
X025483Y034089D02*
Y03379D01*
X025782D01*
X025759Y033875D01*
X025713Y033955D01*
X025648Y03402D01*
X025568Y034066D01*
X025483Y034089D01*
D02*
G37*
G36*
X025383D02*
X025298Y034066D01*
X025218Y03402D01*
X025153Y033955D01*
X025107Y033875D01*
X025084Y03379D01*
X025383D01*
Y034089D01*
D02*
G37*
G36*
X025782Y03369D02*
X025483D01*
Y033391D01*
X025568Y033414D01*
X025648Y03346D01*
X025713Y033525D01*
X025759Y033605D01*
X025782Y03369D01*
D02*
G37*
G36*
X025383D02*
X025084D01*
X025107Y033605D01*
X025153Y033525D01*
X025218Y03346D01*
X025298Y033414D01*
X025383Y033391D01*
Y03369D01*
D02*
G37*
G36*
X014257Y037029D02*
X013428D01*
Y036199D01*
X013656D01*
Y034371D01*
X013654Y034371D01*
X013527Y034318D01*
X013412Y034241D01*
X013315Y034144D01*
X013238Y034029D01*
X013185Y033902D01*
X013158Y033767D01*
Y033629D01*
X013185Y033493D01*
X013238Y033366D01*
X013315Y033251D01*
X013412Y033154D01*
X013527Y033077D01*
X013654Y033025D01*
X013789Y032998D01*
X013927D01*
X014062Y033025D01*
X01419Y033077D01*
X014304Y033154D01*
X014402Y033251D01*
X014479Y033366D01*
X014531Y033493D01*
X014558Y033629D01*
Y033767D01*
X014531Y033902D01*
X014479Y034029D01*
X014402Y034144D01*
X014304Y034241D01*
X01419Y034318D01*
X014062Y034371D01*
X014061Y034371D01*
Y036199D01*
X014257D01*
Y037029D01*
D02*
G37*
G36*
X031821Y0351D02*
X031722D01*
X031627Y035074D01*
X031541Y035025D01*
X031471Y034955D01*
X031422Y034869D01*
X031396Y034774D01*
Y034675D01*
X031422Y034579D01*
X031471Y034494D01*
X031541Y034424D01*
X031563Y034411D01*
Y03227D01*
X031541Y032257D01*
X031475Y032191D01*
X031428Y03211D01*
X031404Y032019D01*
Y031926D01*
X031428Y031835D01*
X031475Y031754D01*
X031541Y031688D01*
X031622Y031641D01*
X031713Y031617D01*
X031807D01*
X031897Y031641D01*
X031978Y031688D01*
X032045Y031754D01*
X032091Y031835D01*
X032116Y031926D01*
Y032019D01*
X032091Y03211D01*
X032045Y032191D01*
X031978Y032257D01*
X031968Y032263D01*
Y034404D01*
X032002Y034424D01*
X032072Y034494D01*
X032122Y034579D01*
X032147Y034675D01*
Y034774D01*
X032122Y034869D01*
X032072Y034955D01*
X032002Y035025D01*
X031917Y035074D01*
X031821Y0351D01*
D02*
G37*
G36*
X026373Y031463D02*
Y030916D01*
X026757D01*
Y031036D01*
X026742Y031148D01*
X026698Y031253D01*
X02663Y031343D01*
X02654Y031412D01*
X026435Y031455D01*
X026373Y031463D01*
D02*
G37*
G36*
X026273D02*
X026211Y031455D01*
X026106Y031412D01*
X026016Y031343D01*
X025947Y031253D01*
X025904Y031148D01*
X025889Y031036D01*
Y030916D01*
X026273D01*
Y031463D01*
D02*
G37*
G36*
X03836Y031494D02*
X037176D01*
Y030821D01*
X03836D01*
Y031494D01*
D02*
G37*
G36*
X048024Y031497D02*
X047512D01*
X047424Y031485D01*
X047342Y031451D01*
X047272Y031397D01*
X047218Y031327D01*
X047184Y031245D01*
X047173Y031157D01*
X047184Y03107D01*
X047218Y030988D01*
X047272Y030918D01*
X047342Y030864D01*
X047424Y03083D01*
X047512Y030818D01*
X048024D01*
X048111Y03083D01*
X048193Y030864D01*
X048263Y030918D01*
X048317Y030988D01*
X048351Y03107D01*
X048363Y031157D01*
X048351Y031245D01*
X048317Y031327D01*
X048263Y031397D01*
X048193Y031451D01*
X048111Y031485D01*
X048024Y031497D01*
D02*
G37*
G36*
X036834Y050604D02*
X036725D01*
X036619Y050576D01*
X036525Y050521D01*
X036447Y050444D01*
X036393Y050349D01*
X036365Y050244D01*
Y050134D01*
X036393Y050029D01*
X036447Y049934D01*
X036525Y049857D01*
X036619Y049802D01*
X036725Y049774D01*
X036834D01*
X03694Y049802D01*
X037034Y049857D01*
X037112Y049934D01*
X037142Y049987D01*
X037869D01*
X038632Y049223D01*
Y034295D01*
X038648Y034218D01*
X038692Y034152D01*
X039302Y033542D01*
X039367Y033498D01*
X039445Y033483D01*
X048523D01*
X04877Y033235D01*
Y0306D01*
X04854Y030369D01*
X048285D01*
X048263Y030397D01*
X048193Y030451D01*
X048111Y030485D01*
X048024Y030497D01*
X047512D01*
X047424Y030485D01*
X047342Y030451D01*
X047272Y030397D01*
X047218Y030327D01*
X047184Y030245D01*
X047173Y030157D01*
X047184Y03007D01*
X047218Y029988D01*
X047272Y029918D01*
X047342Y029864D01*
X047424Y02983D01*
X047512Y029818D01*
X048024D01*
X048111Y02983D01*
X048193Y029864D01*
X048263Y029918D01*
X048299Y029965D01*
X048624D01*
X048701Y02998D01*
X048767Y030024D01*
X049116Y030373D01*
X049159Y030438D01*
X049175Y030516D01*
Y033319D01*
X049159Y033396D01*
X049116Y033462D01*
X048749Y033828D01*
X048684Y033872D01*
X048606Y033887D01*
X039529D01*
X039037Y034379D01*
Y049307D01*
X039022Y049385D01*
X038978Y04945D01*
X038096Y050332D01*
X03803Y050376D01*
X037953Y050391D01*
X037142D01*
X037112Y050444D01*
X037034Y050521D01*
X03694Y050576D01*
X036834Y050604D01*
D02*
G37*
G36*
X026757Y030816D02*
X026373D01*
Y030269D01*
X026435Y030277D01*
X02654Y030321D01*
X02663Y030389D01*
X026698Y030479D01*
X026742Y030584D01*
X026757Y030696D01*
Y030816D01*
D02*
G37*
G36*
X026273D02*
X025889D01*
Y030696D01*
X025904Y030584D01*
X025947Y030479D01*
X026016Y030389D01*
X026106Y030321D01*
X026211Y030277D01*
X026273Y030269D01*
Y030816D01*
D02*
G37*
G36*
X027805Y0351D02*
X027706D01*
X027611Y035074D01*
X027525Y035025D01*
X027455Y034955D01*
X027406Y034869D01*
X02738Y034774D01*
Y034675D01*
X027406Y034579D01*
X027455Y034494D01*
X027525Y034424D01*
X027611Y034374D01*
X027706Y034349D01*
X027805D01*
X027837Y034357D01*
X028121Y034074D01*
Y031418D01*
X028106Y031412D01*
X028016Y031343D01*
X027947Y031253D01*
X027904Y031148D01*
X027889Y031036D01*
Y030696D01*
X027904Y030584D01*
X027947Y030479D01*
X028016Y030389D01*
X028106Y030321D01*
X028211Y030277D01*
X028323Y030262D01*
X028435Y030277D01*
X02854Y030321D01*
X02863Y030389D01*
X028698Y030479D01*
X028742Y030584D01*
X028757Y030696D01*
Y031036D01*
X028742Y031148D01*
X028698Y031253D01*
X02863Y031343D01*
X02854Y031412D01*
X028525Y031418D01*
Y034157D01*
X02851Y034235D01*
X028466Y034301D01*
X028123Y034643D01*
X028131Y034675D01*
Y034774D01*
X028106Y034869D01*
X028056Y034955D01*
X027987Y035025D01*
X027901Y035074D01*
X027805Y0351D01*
D02*
G37*
G36*
X02689Y034809D02*
X021654D01*
X021576Y034793D01*
X02151Y034749D01*
X021117Y034356D01*
X021073Y03429D01*
X021058Y034213D01*
Y033848D01*
X019326D01*
X019282Y033954D01*
X019205Y034068D01*
X019108Y034166D01*
X018993Y034242D01*
X018866Y034295D01*
X01873Y034322D01*
X018592D01*
X018457Y034295D01*
X01833Y034242D01*
X018215Y034166D01*
X018118Y034068D01*
X018041Y033954D01*
X017988Y033826D01*
X017961Y033691D01*
Y033553D01*
X017988Y033418D01*
X018041Y03329D01*
X018118Y033176D01*
X018215Y033078D01*
X01833Y033002D01*
X018457Y032949D01*
X018592Y032922D01*
X01873D01*
X018866Y032949D01*
X018993Y033002D01*
X019108Y033078D01*
X019205Y033176D01*
X019282Y03329D01*
X019335Y033418D01*
X01934Y033443D01*
X022545D01*
X022592Y033362D01*
X022685Y033269D01*
X022799Y033203D01*
X022926Y033169D01*
X023058D01*
X023185Y033203D01*
X023299Y033269D01*
X023392Y033362D01*
X023458Y033476D01*
X023492Y033603D01*
Y033735D01*
X023458Y033862D01*
X023392Y033976D01*
X023299Y034069D01*
X023185Y034135D01*
X023058Y034169D01*
X022926D01*
X022799Y034135D01*
X022685Y034069D01*
X022592Y033976D01*
X022526Y033862D01*
X022522Y033848D01*
X021462D01*
Y034129D01*
X021737Y034404D01*
X026806D01*
X027121Y034089D01*
Y031418D01*
X027106Y031412D01*
X027016Y031343D01*
X026947Y031253D01*
X026904Y031148D01*
X026889Y031036D01*
Y030696D01*
X026904Y030584D01*
X026947Y030479D01*
X027016Y030389D01*
X027106Y030321D01*
X027211Y030277D01*
X027323Y030262D01*
X027435Y030277D01*
X02754Y030321D01*
X02763Y030389D01*
X027698Y030479D01*
X027742Y030584D01*
X027757Y030696D01*
Y031036D01*
X027742Y031148D01*
X027698Y031253D01*
X02763Y031343D01*
X02754Y031412D01*
X027525Y031418D01*
Y034173D01*
X02751Y034251D01*
X027466Y034316D01*
X027033Y034749D01*
X026967Y034793D01*
X02689Y034809D01*
D02*
G37*
G36*
X030807Y032328D02*
X030713D01*
X030622Y032304D01*
X030541Y032257D01*
X030475Y032191D01*
X030466Y032175D01*
X029807D01*
X02973Y032159D01*
X029664Y032115D01*
X029306Y031757D01*
X029262Y031692D01*
X029247Y031614D01*
Y030044D01*
X028932Y02973D01*
X021777D01*
Y030467D01*
X022492D01*
Y030169D01*
X023492D01*
Y031169D01*
X022492D01*
Y030872D01*
X021659D01*
X021127Y031403D01*
X021062Y031447D01*
X020984Y031462D01*
X020122D01*
X020122Y031464D01*
X020069Y031591D01*
X019993Y031706D01*
X019895Y031804D01*
X01978Y03188D01*
X019653Y031933D01*
X019518Y03196D01*
X01938D01*
X019245Y031933D01*
X019117Y03188D01*
X019003Y031804D01*
X018905Y031706D01*
X018828Y031591D01*
X018776Y031464D01*
X018749Y031329D01*
Y031191D01*
X018776Y031056D01*
X018828Y030928D01*
X018905Y030814D01*
X019003Y030716D01*
X019117Y03064D01*
X019245Y030587D01*
X01938Y03056D01*
X019518D01*
X019653Y030587D01*
X01978Y03064D01*
X019895Y030716D01*
X019993Y030814D01*
X020069Y030928D01*
X020122Y031056D01*
X020122Y031058D01*
X0209D01*
X021372Y030585D01*
Y029528D01*
Y026934D01*
X018864D01*
Y028224D01*
X018866Y028225D01*
X018993Y028277D01*
X019108Y028354D01*
X019205Y028451D01*
X019282Y028566D01*
X019335Y028693D01*
X019361Y028829D01*
Y028967D01*
X019335Y029102D01*
X019282Y029229D01*
X019205Y029344D01*
X019108Y029441D01*
X018993Y029518D01*
X018866Y029571D01*
X01873Y029598D01*
X018592D01*
X018457Y029571D01*
X01833Y029518D01*
X018215Y029441D01*
X018118Y029344D01*
X018041Y029229D01*
X017988Y029102D01*
X017961Y028967D01*
Y028829D01*
X017988Y028693D01*
X018041Y028566D01*
X018118Y028451D01*
X018215Y028354D01*
X01833Y028277D01*
X018457Y028225D01*
X018459Y028224D01*
Y026934D01*
X013268D01*
X013268Y026934D01*
X013165Y026921D01*
X013068Y026881D01*
X012986Y026817D01*
X012986Y026817D01*
X011923Y025754D01*
X011859Y025672D01*
X01182Y025576D01*
X011806Y025472D01*
X011806Y025472D01*
Y02311D01*
X011806Y02311D01*
X011806Y02311D01*
Y012405D01*
X011806Y012405D01*
X01182Y012302D01*
X011859Y012206D01*
X011923Y012123D01*
X012269Y011777D01*
X012269Y011777D01*
X012351Y011714D01*
X012447Y011674D01*
X012551Y01166D01*
X012551Y01166D01*
X031829D01*
X031854Y01165D01*
X031957Y011637D01*
X031957Y011637D01*
X048575D01*
X048678Y01165D01*
X048774Y01169D01*
X048857Y011754D01*
X04892Y011836D01*
X04896Y011932D01*
X048973Y012035D01*
X04896Y012139D01*
X04892Y012235D01*
X048857Y012317D01*
X048774Y012381D01*
X048678Y012421D01*
X048575Y012434D01*
X032937D01*
X032918Y01248D01*
X037197Y016759D01*
X037768D01*
X037871Y016772D01*
X037967Y016812D01*
X037975Y016818D01*
X038024D01*
X038111Y01683D01*
X038193Y016864D01*
X038263Y016918D01*
X038317Y016988D01*
X038351Y01707D01*
X038363Y017157D01*
X038351Y017245D01*
X038317Y017327D01*
X038263Y017397D01*
X038193Y017451D01*
X038111Y017485D01*
X038024Y017497D01*
X037975D01*
X037967Y017503D01*
X037871Y017543D01*
X037768Y017556D01*
X037032D01*
X037032Y017556D01*
X036928Y017543D01*
X036832Y017503D01*
X03675Y017439D01*
X03675Y017439D01*
X031768Y012458D01*
X012716D01*
X012603Y01257D01*
Y022945D01*
X013866Y024208D01*
X027866D01*
X028451Y023623D01*
Y021897D01*
X027795Y021242D01*
X027731Y021306D01*
X027649Y021369D01*
X027553Y021409D01*
X027449Y021422D01*
X027449Y021422D01*
X026517D01*
Y021624D01*
X026466D01*
Y022823D01*
X026466Y022823D01*
X026452Y022927D01*
X026412Y023023D01*
X026349Y023105D01*
X026349Y023105D01*
X026003Y023451D01*
X02592Y023515D01*
X025824Y023554D01*
X025721Y023568D01*
X025721Y023568D01*
X020401D01*
X020401Y023568D01*
X020298Y023554D01*
X020202Y023515D01*
X020119Y023451D01*
X020119Y023451D01*
X019773Y023105D01*
X01971Y023023D01*
X01967Y022927D01*
X019656Y022823D01*
X019656Y022823D01*
Y021425D01*
X019618Y021376D01*
X019582Y021288D01*
X019528D01*
X019492Y021376D01*
X019412Y02148D01*
X019307Y02156D01*
X019186Y021611D01*
X019105Y021621D01*
Y021024D01*
Y020426D01*
X019186Y020436D01*
X019307Y020487D01*
X019412Y020567D01*
X019492Y020671D01*
X019528Y020759D01*
X019582D01*
X019618Y020671D01*
X019699Y020567D01*
X019803Y020487D01*
X019925Y020436D01*
X020055Y020419D01*
X020186Y020436D01*
X020307Y020487D01*
X020412Y020567D01*
X020492Y020671D01*
X020542Y020793D01*
X020559Y020924D01*
Y021124D01*
X020542Y021254D01*
X020492Y021376D01*
X020454Y021425D01*
Y022658D01*
X020566Y022771D01*
X025556D01*
X025668Y022658D01*
Y021624D01*
X025617D01*
Y020424D01*
X026517D01*
Y020625D01*
X027284D01*
X027397Y020513D01*
Y016918D01*
X027376Y016882D01*
X027345Y016768D01*
Y016649D01*
X027376Y016535D01*
X027435Y016432D01*
X027519Y016349D01*
X027622Y016289D01*
X027736Y016259D01*
X027855D01*
X027969Y016289D01*
X028072Y016349D01*
X028155Y016432D01*
X028215Y016535D01*
X028245Y016649D01*
Y016768D01*
X028215Y016882D01*
X028194Y016918D01*
Y020513D01*
X029015Y021334D01*
X030709D01*
X030735Y021337D01*
X030761D01*
X030786Y021344D01*
X030812Y021347D01*
X030836Y021357D01*
X030861Y021364D01*
X030884Y021377D01*
X030908Y021387D01*
X030929Y021403D01*
X030951Y021416D01*
X03097Y021434D01*
X030991Y02145D01*
X031006Y021471D01*
X031025Y02149D01*
X031038Y021512D01*
X031054Y021533D01*
X031064Y021557D01*
X031077Y02158D01*
X031084Y021605D01*
X031094Y021629D01*
X031097Y021655D01*
X031104Y02168D01*
Y021706D01*
X031107Y021732D01*
X031104Y021758D01*
Y021784D01*
X031097Y02181D01*
X031094Y021835D01*
X031084Y02186D01*
X031077Y021885D01*
X031064Y021907D01*
X031054Y021932D01*
X031038Y021952D01*
X031025Y021975D01*
X031006Y021993D01*
X030991Y022014D01*
X03097Y02203D01*
X030951Y022049D01*
X030929Y022062D01*
X030908Y022078D01*
X030884Y022088D01*
X030861Y022101D01*
X030836Y022107D01*
X030812Y022117D01*
X030786Y022121D01*
X030761Y022128D01*
X030735D01*
X030709Y022131D01*
X029249D01*
Y023788D01*
X029235Y023891D01*
X029195Y023987D01*
X029132Y02407D01*
X029132Y02407D01*
X028313Y024888D01*
X028231Y024952D01*
X028135Y024991D01*
X028031Y025005D01*
X028031Y025005D01*
X013701D01*
X013701Y025005D01*
X013598Y024991D01*
X013501Y024952D01*
X013419Y024888D01*
X013419Y024888D01*
X01265Y024119D01*
X012603Y024138D01*
Y025307D01*
X013433Y026137D01*
X021811D01*
X021914Y02615D01*
X02201Y02619D01*
X022093Y026254D01*
X022156Y026336D01*
X022196Y026432D01*
X02221Y026535D01*
X022196Y026639D01*
X022156Y026735D01*
X022093Y026817D01*
X02201Y026881D01*
X021914Y026921D01*
X021811Y026934D01*
X021777D01*
Y029325D01*
X029016D01*
X029093Y029341D01*
X029159Y029385D01*
X029592Y029818D01*
X029636Y029883D01*
X029651Y029961D01*
Y03153D01*
X029891Y03177D01*
X030466D01*
X030475Y031754D01*
X030541Y031688D01*
X030622Y031641D01*
X030713Y031617D01*
X030807D01*
X030897Y031641D01*
X030978Y031688D01*
X031045Y031754D01*
X031091Y031835D01*
X031116Y031926D01*
Y032019D01*
X031091Y03211D01*
X031045Y032191D01*
X030978Y032257D01*
X030897Y032304D01*
X030807Y032328D01*
D02*
G37*
G36*
X038024Y030497D02*
X037512D01*
X037424Y030485D01*
X037342Y030451D01*
X037272Y030397D01*
X037218Y030327D01*
X037184Y030245D01*
X037173Y030157D01*
X037184Y03007D01*
X037218Y029988D01*
X037272Y029918D01*
X037342Y029864D01*
X037424Y02983D01*
X037512Y029818D01*
X038024D01*
X038111Y02983D01*
X038193Y029864D01*
X038263Y029918D01*
X038317Y029988D01*
X038351Y03007D01*
X038363Y030157D01*
X038351Y030245D01*
X038317Y030327D01*
X038263Y030397D01*
X038193Y030451D01*
X038111Y030485D01*
X038024Y030497D01*
D02*
G37*
G36*
X03181Y029327D02*
Y029022D01*
X032115D01*
X032091Y02911D01*
X032045Y029191D01*
X031978Y029257D01*
X031897Y029304D01*
X03181Y029327D01*
D02*
G37*
G36*
X03171D02*
X031622Y029304D01*
X031541Y029257D01*
X031475Y029191D01*
X031428Y02911D01*
X031405Y029022D01*
X03171D01*
Y029327D01*
D02*
G37*
G36*
X048024Y029497D02*
X047512D01*
X047424Y029485D01*
X047342Y029451D01*
X047272Y029397D01*
X047218Y029327D01*
X047184Y029245D01*
X047173Y029157D01*
X047184Y02907D01*
X047218Y028988D01*
X047272Y028918D01*
X047342Y028864D01*
X047424Y02883D01*
X047512Y028818D01*
X048024D01*
X048111Y02883D01*
X048193Y028864D01*
X048263Y028918D01*
X048317Y028988D01*
X048351Y02907D01*
X048363Y029157D01*
X048351Y029245D01*
X048317Y029327D01*
X048263Y029397D01*
X048193Y029451D01*
X048111Y029485D01*
X048024Y029497D01*
D02*
G37*
G36*
X038024D02*
X037512D01*
X037424Y029485D01*
X037342Y029451D01*
X037272Y029397D01*
X037218Y029327D01*
X037184Y029245D01*
X037173Y029157D01*
X037184Y02907D01*
X037218Y028988D01*
X037272Y028918D01*
X037342Y028864D01*
X037424Y02883D01*
X037512Y028818D01*
X038024D01*
X038111Y02883D01*
X038193Y028864D01*
X038263Y028918D01*
X038317Y028988D01*
X038351Y02907D01*
X038363Y029157D01*
X038351Y029245D01*
X038317Y029327D01*
X038263Y029397D01*
X038193Y029451D01*
X038111Y029485D01*
X038024Y029497D01*
D02*
G37*
G36*
X032115Y028922D02*
X03181D01*
Y028617D01*
X031897Y028641D01*
X031978Y028688D01*
X032045Y028754D01*
X032091Y028835D01*
X032115Y028922D01*
D02*
G37*
G36*
X03171D02*
X031405D01*
X031428Y028835D01*
X031475Y028754D01*
X031541Y028688D01*
X031622Y028641D01*
X03171Y028617D01*
Y028922D01*
D02*
G37*
G36*
X030807Y029328D02*
X030713D01*
X030622Y029304D01*
X030541Y029257D01*
X030475Y029191D01*
X030428Y02911D01*
X030404Y029019D01*
Y028926D01*
X030409Y028907D01*
X029814Y028313D01*
X024366D01*
X024332Y028371D01*
X024253Y02845D01*
X024156Y028506D01*
X024048Y028535D01*
X023936D01*
X023828Y028506D01*
X023731Y02845D01*
X023652Y028371D01*
X023596Y028274D01*
X023567Y028166D01*
Y028054D01*
X023596Y027946D01*
X023652Y027849D01*
X023731Y02777D01*
X023828Y027714D01*
X023936Y027685D01*
X024048D01*
X024156Y027714D01*
X024253Y02777D01*
X024332Y027849D01*
X024366Y027908D01*
X029898D01*
X029975Y027923D01*
X030041Y027967D01*
X030695Y028621D01*
X030713Y028617D01*
X030807D01*
X030897Y028641D01*
X030978Y028688D01*
X031045Y028754D01*
X031091Y028835D01*
X031116Y028926D01*
Y029019D01*
X031091Y02911D01*
X031045Y029191D01*
X030978Y029257D01*
X030897Y029304D01*
X030807Y029328D01*
D02*
G37*
G36*
X013927Y029598D02*
X013789D01*
X013654Y029571D01*
X013527Y029518D01*
X013412Y029441D01*
X013315Y029344D01*
X013238Y029229D01*
X013185Y029102D01*
X013158Y028967D01*
Y028829D01*
X013185Y028693D01*
X013238Y028566D01*
X013315Y028451D01*
X013412Y028354D01*
X013527Y028277D01*
X013654Y028225D01*
X013789Y028198D01*
X013927D01*
X014062Y028225D01*
X01419Y028277D01*
X014304Y028354D01*
X014402Y028451D01*
X014479Y028566D01*
X014531Y028693D01*
X014558Y028829D01*
Y028967D01*
X014531Y029102D01*
X014479Y029229D01*
X014402Y029344D01*
X014304Y029441D01*
X01419Y029518D01*
X014062Y029571D01*
X013927Y029598D01*
D02*
G37*
G36*
X048024Y028497D02*
X047512D01*
X047424Y028485D01*
X047342Y028451D01*
X047272Y028397D01*
X047218Y028327D01*
X047184Y028245D01*
X047173Y028157D01*
X047184Y02807D01*
X047218Y027988D01*
X047272Y027918D01*
X047342Y027864D01*
X047424Y02783D01*
X047512Y027818D01*
X048024D01*
X048111Y02783D01*
X048193Y027864D01*
X048263Y027918D01*
X048317Y027988D01*
X048351Y02807D01*
X048363Y028157D01*
X048351Y028245D01*
X048317Y028327D01*
X048263Y028397D01*
X048193Y028451D01*
X048111Y028485D01*
X048024Y028497D01*
D02*
G37*
G36*
X038024D02*
X037512D01*
X037424Y028485D01*
X037342Y028451D01*
X037272Y028397D01*
X037218Y028327D01*
X037184Y028245D01*
X037173Y028157D01*
X037184Y02807D01*
X037218Y027988D01*
X037272Y027918D01*
X037342Y027864D01*
X037424Y02783D01*
X037512Y027818D01*
X038024D01*
X038111Y02783D01*
X038193Y027864D01*
X038263Y027918D01*
X038317Y027988D01*
X038351Y02807D01*
X038363Y028157D01*
X038351Y028245D01*
X038317Y028327D01*
X038263Y028397D01*
X038193Y028451D01*
X038111Y028485D01*
X038024Y028497D01*
D02*
G37*
G36*
X036834Y051604D02*
X036725D01*
X036619Y051576D01*
X036525Y051521D01*
X036447Y051444D01*
X036393Y051349D01*
X036365Y051244D01*
Y051134D01*
X036393Y051029D01*
X036447Y050934D01*
X036525Y050857D01*
X036619Y050802D01*
X036725Y050774D01*
X036834D01*
X03694Y050802D01*
X037034Y050857D01*
X037112Y050934D01*
X037142Y050987D01*
X038015D01*
X039313Y049688D01*
Y034638D01*
X039329Y03456D01*
X039373Y034495D01*
X039715Y034152D01*
X039781Y034108D01*
X039858Y034093D01*
X048696D01*
X049404Y033385D01*
Y027844D01*
X04892Y02736D01*
X048292D01*
X048263Y027397D01*
X048193Y027451D01*
X048111Y027485D01*
X048024Y027497D01*
X047512D01*
X047424Y027485D01*
X047342Y027451D01*
X047272Y027397D01*
X047218Y027327D01*
X047184Y027245D01*
X047173Y027157D01*
X047184Y02707D01*
X047218Y026988D01*
X047272Y026918D01*
X047342Y026864D01*
X047424Y02683D01*
X047512Y026818D01*
X048024D01*
X048111Y02683D01*
X048193Y026864D01*
X048263Y026918D01*
X048292Y026955D01*
X049004D01*
X049081Y026971D01*
X049147Y027014D01*
X049749Y027617D01*
X049793Y027682D01*
X049809Y02776D01*
Y033468D01*
X049793Y033546D01*
X049749Y033612D01*
X048923Y034438D01*
X048857Y034482D01*
X04878Y034498D01*
X039942D01*
X039718Y034722D01*
Y049772D01*
X039703Y049849D01*
X039659Y049915D01*
X038241Y051332D01*
X038176Y051376D01*
X038098Y051391D01*
X037142D01*
X037112Y051444D01*
X037034Y051521D01*
X03694Y051576D01*
X036834Y051604D01*
D02*
G37*
G36*
X038024Y027497D02*
X037512D01*
X037424Y027485D01*
X037342Y027451D01*
X037272Y027397D01*
X037218Y027327D01*
X037184Y027245D01*
X037173Y027157D01*
X037184Y02707D01*
X037218Y026988D01*
X037272Y026918D01*
X037342Y026864D01*
X037424Y02683D01*
X037512Y026818D01*
X038024D01*
X038111Y02683D01*
X038193Y026864D01*
X038263Y026918D01*
X038317Y026988D01*
X038351Y02707D01*
X038363Y027157D01*
X038351Y027245D01*
X038317Y027327D01*
X038263Y027397D01*
X038193Y027451D01*
X038111Y027485D01*
X038024Y027497D01*
D02*
G37*
G36*
X055387Y026616D02*
X054557D01*
Y02636D01*
X048292D01*
X048263Y026397D01*
X048193Y026451D01*
X048111Y026485D01*
X048024Y026497D01*
X047512D01*
X047424Y026485D01*
X047342Y026451D01*
X047272Y026397D01*
X047218Y026327D01*
X047184Y026245D01*
X047173Y026157D01*
X047184Y02607D01*
X047218Y025988D01*
X047272Y025918D01*
X047342Y025864D01*
X047424Y02583D01*
X047512Y025818D01*
X048024D01*
X048111Y02583D01*
X048193Y025864D01*
X048263Y025918D01*
X048292Y025955D01*
X054557D01*
Y025786D01*
X055387D01*
Y026616D01*
D02*
G37*
G36*
X023205Y028535D02*
X02278D01*
X022567Y028323D01*
Y027898D01*
X02278Y027685D01*
X02279D01*
Y027008D01*
X022805Y02693D01*
X022849Y026865D01*
X023322Y026392D01*
X023387Y026349D01*
X023465Y026333D01*
X026038D01*
X026062Y026293D01*
X026135Y026219D01*
X026225Y026167D01*
X026326Y02614D01*
X02643D01*
X026531Y026167D01*
X026621Y026219D01*
X026694Y026293D01*
X026746Y026383D01*
X026773Y026483D01*
Y026587D01*
X026746Y026688D01*
X026694Y026778D01*
X026621Y026852D01*
X026531Y026904D01*
X02643Y026931D01*
X026326D01*
X026225Y026904D01*
X026135Y026852D01*
X026062Y026778D01*
X026038Y026738D01*
X023548D01*
X023194Y027092D01*
Y027685D01*
X023205D01*
X023417Y027898D01*
Y028323D01*
X023205Y028535D01*
D02*
G37*
G36*
X038024Y026497D02*
X037512D01*
X037424Y026485D01*
X037342Y026451D01*
X037272Y026397D01*
X037218Y026327D01*
X037184Y026245D01*
X037173Y026157D01*
X037184Y02607D01*
X037218Y025988D01*
X037272Y025918D01*
X037342Y025864D01*
X037424Y02583D01*
X037512Y025818D01*
X038024D01*
X038111Y02583D01*
X038193Y025864D01*
X038263Y025918D01*
X038317Y025988D01*
X038351Y02607D01*
X038363Y026157D01*
X038351Y026245D01*
X038317Y026327D01*
X038263Y026397D01*
X038193Y026451D01*
X038111Y026485D01*
X038024Y026497D01*
D02*
G37*
G36*
X055027Y025616D02*
X054918D01*
X054812Y025587D01*
X054718Y025533D01*
X05464Y025456D01*
X054598Y025381D01*
X048276D01*
X048263Y025397D01*
X048193Y025451D01*
X048111Y025485D01*
X048024Y025497D01*
X047512D01*
X047424Y025485D01*
X047342Y025451D01*
X047272Y025397D01*
X047218Y025327D01*
X047184Y025245D01*
X047173Y025157D01*
X047184Y02507D01*
X047218Y024988D01*
X047272Y024918D01*
X047342Y024864D01*
X047424Y02483D01*
X047512Y024818D01*
X048024D01*
X048111Y02483D01*
X048193Y024864D01*
X048263Y024918D01*
X048309Y024977D01*
X054623D01*
X05464Y024946D01*
X054718Y024869D01*
X054812Y024814D01*
X054918Y024786D01*
X055027D01*
X055133Y024814D01*
X055227Y024869D01*
X055304Y024946D01*
X055359Y025041D01*
X055387Y025146D01*
Y025255D01*
X055359Y025361D01*
X055304Y025456D01*
X055227Y025533D01*
X055133Y025587D01*
X055027Y025616D01*
D02*
G37*
G36*
X038024Y025497D02*
X037512D01*
X037424Y025485D01*
X037342Y025451D01*
X037272Y025397D01*
X037218Y025327D01*
X037184Y025245D01*
X037173Y025157D01*
X037184Y02507D01*
X037218Y024988D01*
X037272Y024918D01*
X037342Y024864D01*
X037424Y02483D01*
X037512Y024818D01*
X038024D01*
X038111Y02483D01*
X038193Y024864D01*
X038263Y024918D01*
X038317Y024988D01*
X038351Y02507D01*
X038363Y025157D01*
X038351Y025245D01*
X038317Y025327D01*
X038263Y025397D01*
X038193Y025451D01*
X038111Y025485D01*
X038024Y025497D01*
D02*
G37*
G36*
X055027Y024616D02*
X054918D01*
X054812Y024587D01*
X054718Y024533D01*
X05464Y024456D01*
X054598Y024381D01*
X048276D01*
X048263Y024397D01*
X048193Y024451D01*
X048111Y024485D01*
X048024Y024497D01*
X047512D01*
X047424Y024485D01*
X047342Y024451D01*
X047272Y024397D01*
X047218Y024327D01*
X047184Y024245D01*
X047173Y024157D01*
X047184Y02407D01*
X047218Y023988D01*
X047272Y023918D01*
X047342Y023864D01*
X047424Y02383D01*
X047512Y023818D01*
X048024D01*
X048111Y02383D01*
X048193Y023864D01*
X048263Y023918D01*
X048309Y023977D01*
X054623D01*
X05464Y023946D01*
X054718Y023869D01*
X054812Y023814D01*
X054918Y023786D01*
X055027D01*
X055133Y023814D01*
X055227Y023869D01*
X055304Y023946D01*
X055359Y024041D01*
X055387Y024146D01*
Y024255D01*
X055359Y024361D01*
X055304Y024456D01*
X055227Y024533D01*
X055133Y024587D01*
X055027Y024616D01*
D02*
G37*
G36*
X062244Y024387D02*
X062239D01*
Y024022D01*
X062604D01*
Y024027D01*
X062576Y024133D01*
X062521Y024227D01*
X062444Y024304D01*
X062349Y024359D01*
X062244Y024387D01*
D02*
G37*
G36*
X062139D02*
X062134D01*
X062029Y024359D01*
X061934Y024304D01*
X061857Y024227D01*
X061802Y024133D01*
X061774Y024027D01*
Y024022D01*
X062139D01*
Y024387D01*
D02*
G37*
G36*
X062604Y023922D02*
X062239D01*
Y023557D01*
X062244D01*
X062349Y023586D01*
X062444Y02364D01*
X062521Y023718D01*
X062576Y023812D01*
X062604Y023918D01*
Y023922D01*
D02*
G37*
G36*
X062139D02*
X061774D01*
Y023918D01*
X061802Y023812D01*
X061857Y023718D01*
X061934Y02364D01*
X062029Y023586D01*
X062134Y023557D01*
X062139D01*
Y023922D01*
D02*
G37*
G36*
X055027Y023616D02*
X054918D01*
X054812Y023587D01*
X054718Y023533D01*
X05464Y023456D01*
X054598Y023381D01*
X048276D01*
X048263Y023397D01*
X048193Y023451D01*
X048111Y023485D01*
X048024Y023497D01*
X047512D01*
X047424Y023485D01*
X047342Y023451D01*
X047272Y023397D01*
X047218Y023327D01*
X047184Y023245D01*
X047173Y023157D01*
X047184Y02307D01*
X047218Y022988D01*
X047272Y022918D01*
X047342Y022864D01*
X047424Y02283D01*
X047512Y022818D01*
X048024D01*
X048111Y02283D01*
X048193Y022864D01*
X048263Y022918D01*
X048309Y022977D01*
X054623D01*
X05464Y022946D01*
X054718Y022869D01*
X054812Y022814D01*
X054918Y022786D01*
X055027D01*
X055133Y022814D01*
X055227Y022869D01*
X055304Y022946D01*
X055359Y023041D01*
X055387Y023146D01*
Y023255D01*
X055359Y023361D01*
X055304Y023456D01*
X055227Y023533D01*
X055133Y023587D01*
X055027Y023616D01*
D02*
G37*
G36*
X062244Y023387D02*
X062134D01*
X062029Y023359D01*
X061934Y023304D01*
X061857Y023227D01*
X061818Y023159D01*
X061579D01*
X061501Y023144D01*
X061436Y0231D01*
X057711Y019376D01*
X04828D01*
X048263Y019397D01*
X048193Y019451D01*
X048111Y019485D01*
X048024Y019497D01*
X047512D01*
X047424Y019485D01*
X047342Y019451D01*
X047272Y019397D01*
X047218Y019327D01*
X047184Y019245D01*
X047173Y019157D01*
X047184Y01907D01*
X047218Y018988D01*
X047272Y018918D01*
X047342Y018864D01*
X047424Y01883D01*
X047512Y018818D01*
X048024D01*
X048111Y01883D01*
X048193Y018864D01*
X048263Y018918D01*
X048304Y018971D01*
X057795D01*
X057873Y018986D01*
X057938Y01903D01*
X061663Y022754D01*
X061836D01*
X061857Y022718D01*
X061934Y02264D01*
X062029Y022586D01*
X062134Y022557D01*
X062244D01*
X062349Y022586D01*
X062444Y02264D01*
X062521Y022718D01*
X062576Y022812D01*
X062604Y022918D01*
Y023027D01*
X062576Y023133D01*
X062521Y023227D01*
X062444Y023304D01*
X062349Y023359D01*
X062244Y023387D01*
D02*
G37*
G36*
X055027Y022616D02*
X054918D01*
X054812Y022587D01*
X054718Y022533D01*
X05464Y022456D01*
X054598Y022381D01*
X048276D01*
X048263Y022397D01*
X048193Y022451D01*
X048111Y022485D01*
X048024Y022497D01*
X047512D01*
X047424Y022485D01*
X047342Y022451D01*
X047272Y022397D01*
X047218Y022327D01*
X047184Y022245D01*
X047173Y022157D01*
X047184Y02207D01*
X047218Y021988D01*
X047272Y021918D01*
X047342Y021864D01*
X047424Y02183D01*
X047512Y021818D01*
X048024D01*
X048111Y02183D01*
X048193Y021864D01*
X048263Y021918D01*
X048309Y021977D01*
X054623D01*
X05464Y021946D01*
X054718Y021869D01*
X054812Y021814D01*
X054918Y021786D01*
X055027D01*
X055133Y021814D01*
X055227Y021869D01*
X055304Y021946D01*
X055359Y022041D01*
X055387Y022146D01*
Y022255D01*
X055359Y022361D01*
X055304Y022456D01*
X055227Y022533D01*
X055133Y022587D01*
X055027Y022616D01*
D02*
G37*
G36*
X032956Y021861D02*
Y021562D01*
X033254D01*
X033232Y021647D01*
X033186Y021727D01*
X03312Y021792D01*
X033041Y021838D01*
X032956Y021861D01*
D02*
G37*
G36*
X032856D02*
X03277Y021838D01*
X032691Y021792D01*
X032625Y021727D01*
X032579Y021647D01*
X032557Y021562D01*
X032856D01*
Y021861D01*
D02*
G37*
G36*
X055027Y021616D02*
X054918D01*
X054812Y021587D01*
X054718Y021533D01*
X05464Y021456D01*
X054598Y021381D01*
X048276D01*
X048263Y021397D01*
X048193Y021451D01*
X048111Y021485D01*
X048024Y021497D01*
X047512D01*
X047424Y021485D01*
X047342Y021451D01*
X047272Y021397D01*
X047218Y021327D01*
X047184Y021245D01*
X047173Y021157D01*
X047184Y02107D01*
X047218Y020988D01*
X047272Y020918D01*
X047342Y020864D01*
X047424Y02083D01*
X047512Y020818D01*
X048024D01*
X048111Y02083D01*
X048193Y020864D01*
X048263Y020918D01*
X048309Y020977D01*
X054623D01*
X05464Y020946D01*
X054718Y020869D01*
X054812Y020814D01*
X054918Y020786D01*
X055027D01*
X055133Y020814D01*
X055227Y020869D01*
X055304Y020946D01*
X055359Y021041D01*
X055387Y021146D01*
Y021255D01*
X055359Y021361D01*
X055304Y021456D01*
X055227Y021533D01*
X055133Y021587D01*
X055027Y021616D01*
D02*
G37*
G36*
X033254Y021462D02*
X032956D01*
Y021163D01*
X033041Y021186D01*
X03312Y021232D01*
X033186Y021297D01*
X033232Y021377D01*
X033254Y021462D01*
D02*
G37*
G36*
X032856D02*
X032557D01*
X032579Y021377D01*
X032625Y021297D01*
X032691Y021232D01*
X03277Y021186D01*
X032856Y021163D01*
Y021462D01*
D02*
G37*
G36*
X024617Y021621D02*
Y021074D01*
X025021D01*
Y021174D01*
X025005Y021291D01*
X02496Y021401D01*
X024888Y021495D01*
X024794Y021567D01*
X024684Y021612D01*
X024617Y021621D01*
D02*
G37*
G36*
X024517Y021621D02*
X024449Y021612D01*
X02434Y021567D01*
X024246Y021495D01*
X024174Y021401D01*
X024129Y021291D01*
X024113Y021174D01*
Y021074D01*
X024517D01*
Y021621D01*
D02*
G37*
G36*
Y020974D02*
X024113D01*
Y020874D01*
X024129Y020756D01*
X024174Y020647D01*
X024246Y020553D01*
X02434Y020481D01*
X024449Y020435D01*
X024517Y020426D01*
Y020974D01*
D02*
G37*
G36*
X025021D02*
X024617D01*
Y020426D01*
X024684Y020435D01*
X024794Y020481D01*
X024888Y020553D01*
X02496Y020647D01*
X025005Y020756D01*
X025021Y020874D01*
Y020974D01*
D02*
G37*
G36*
X018555Y021624D02*
X017555D01*
Y020424D01*
X017656D01*
Y018874D01*
X017656Y018874D01*
X01767Y018771D01*
X01771Y018675D01*
X017773Y018592D01*
X018263Y018103D01*
Y016836D01*
X018241Y016818D01*
X018167Y016728D01*
X018112Y016625D01*
X018078Y016514D01*
X018066Y016398D01*
Y015413D01*
X018078Y015297D01*
X018112Y015186D01*
X018167Y015083D01*
X018241Y014993D01*
X018331Y014919D01*
X018434Y014864D01*
X018545Y01483D01*
X018661Y014818D01*
X018777Y01483D01*
X018889Y014864D01*
X018992Y014919D01*
X019082Y014993D01*
X019156Y015083D01*
X019211Y015186D01*
X019245Y015297D01*
X019256Y015413D01*
Y015507D01*
X019843D01*
X019843Y015507D01*
X019946Y01552D01*
X020042Y01556D01*
X020124Y015624D01*
X020401Y015901D01*
X021205D01*
X021211Y015898D01*
Y015774D01*
X022411D01*
Y015826D01*
X023508D01*
X023508Y015826D01*
X023611Y015839D01*
X023707Y015879D01*
X02379Y015942D01*
X024142Y016294D01*
X024778D01*
X024787Y016289D01*
X024901Y016259D01*
X02502D01*
X025134Y016289D01*
X025237Y016349D01*
X025321Y016432D01*
X02538Y016535D01*
X025411Y016649D01*
Y016768D01*
X02538Y016882D01*
X025321Y016985D01*
X025237Y017069D01*
X025134Y017128D01*
X02502Y017159D01*
X024901D01*
X024787Y017128D01*
X024724Y017092D01*
X023976D01*
X023873Y017078D01*
X023777Y017038D01*
X023694Y016975D01*
X023694Y016975D01*
X023343Y016623D01*
X022411D01*
Y016674D01*
X021782D01*
X021756Y016678D01*
X021756Y016678D01*
X021423D01*
X021407Y016684D01*
X021304Y016698D01*
X021304Y016698D01*
X020236D01*
X020133Y016684D01*
X020037Y016644D01*
X019954Y016581D01*
X019954Y016581D01*
X019677Y016304D01*
X019256D01*
Y016398D01*
X019245Y016514D01*
X019211Y016625D01*
X019156Y016728D01*
X019082Y016818D01*
X01906Y016836D01*
Y018268D01*
X019047Y018371D01*
X019007Y018467D01*
X018943Y01855D01*
X018943Y01855D01*
X018454Y019039D01*
Y020424D01*
X018555D01*
Y020694D01*
X018605Y020703D01*
X018618Y020671D01*
X018699Y020567D01*
X018803Y020487D01*
X018925Y020436D01*
X019005Y020426D01*
Y021024D01*
Y021621D01*
X018925Y021611D01*
X018803Y02156D01*
X018699Y02148D01*
X018618Y021376D01*
X018605Y021344D01*
X018555Y021354D01*
Y021624D01*
D02*
G37*
G36*
X055027Y020616D02*
X054918D01*
X054812Y020587D01*
X054718Y020533D01*
X05464Y020456D01*
X054598Y020381D01*
X048276D01*
X048263Y020397D01*
X048193Y020451D01*
X048111Y020485D01*
X048024Y020497D01*
X047512D01*
X047424Y020485D01*
X047342Y020451D01*
X047272Y020397D01*
X047218Y020327D01*
X047184Y020245D01*
X047173Y020157D01*
X047184Y02007D01*
X047218Y019988D01*
X047272Y019918D01*
X047342Y019864D01*
X047424Y01983D01*
X047512Y019818D01*
X048024D01*
X048111Y01983D01*
X048193Y019864D01*
X048263Y019918D01*
X048309Y019977D01*
X054623D01*
X05464Y019946D01*
X054718Y019869D01*
X054812Y019814D01*
X054918Y019786D01*
X055027D01*
X055133Y019814D01*
X055227Y019869D01*
X055304Y019946D01*
X055359Y020041D01*
X055387Y020146D01*
Y020255D01*
X055359Y020361D01*
X055304Y020456D01*
X055227Y020533D01*
X055133Y020587D01*
X055027Y020616D01*
D02*
G37*
G36*
X031469Y026931D02*
X031365D01*
X031265Y026904D01*
X031175Y026852D01*
X031101Y026778D01*
X031049Y026688D01*
X031022Y026587D01*
Y026483D01*
X031049Y026383D01*
X031101Y026293D01*
X031175Y026219D01*
X031265Y026167D01*
X031365Y02614D01*
X031469D01*
X031514Y026152D01*
X032046Y025621D01*
Y020795D01*
X032061Y020718D01*
X032105Y020652D01*
X032743Y020014D01*
X032808Y019971D01*
X032886Y019955D01*
X037243D01*
X037272Y019918D01*
X037342Y019864D01*
X037424Y01983D01*
X037512Y019818D01*
X038024D01*
X038111Y01983D01*
X038193Y019864D01*
X038263Y019918D01*
X038317Y019988D01*
X038351Y02007D01*
X038363Y020157D01*
X038351Y020245D01*
X038317Y020327D01*
X038263Y020397D01*
X038193Y020451D01*
X038111Y020485D01*
X038024Y020497D01*
X037512D01*
X037424Y020485D01*
X037342Y020451D01*
X037272Y020397D01*
X037243Y02036D01*
X03297D01*
X03245Y020879D01*
Y025705D01*
X032435Y025782D01*
X032391Y025848D01*
X031801Y026438D01*
X031813Y026483D01*
Y026587D01*
X031786Y026688D01*
X031734Y026778D01*
X03166Y026852D01*
X03157Y026904D01*
X031469Y026931D01*
D02*
G37*
G36*
X032924Y019436D02*
Y019137D01*
X033223D01*
X0332Y019222D01*
X033154Y019302D01*
X033089Y019367D01*
X033009Y019413D01*
X032924Y019436D01*
D02*
G37*
G36*
X032824D02*
X032739Y019413D01*
X032659Y019367D01*
X032594Y019302D01*
X032548Y019222D01*
X032525Y019137D01*
X032824D01*
Y019436D01*
D02*
G37*
G36*
X038024Y019497D02*
X037512D01*
X037424Y019485D01*
X037342Y019451D01*
X037272Y019397D01*
X037218Y019327D01*
X037184Y019245D01*
X037173Y019157D01*
X037184Y01907D01*
X037218Y018988D01*
X037272Y018918D01*
X037342Y018864D01*
X037424Y01883D01*
X037512Y018818D01*
X038024D01*
X038111Y01883D01*
X038193Y018864D01*
X038263Y018918D01*
X038317Y018988D01*
X038351Y01907D01*
X038363Y019157D01*
X038351Y019245D01*
X038317Y019327D01*
X038263Y019397D01*
X038193Y019451D01*
X038111Y019485D01*
X038024Y019497D01*
D02*
G37*
G36*
X033223Y019037D02*
X032924D01*
Y018738D01*
X033009Y01876D01*
X033089Y018807D01*
X033154Y018872D01*
X0332Y018952D01*
X033223Y019037D01*
D02*
G37*
G36*
X032824D02*
X032525D01*
X032548Y018952D01*
X032594Y018872D01*
X032659Y018807D01*
X032739Y01876D01*
X032824Y018738D01*
Y019037D01*
D02*
G37*
G36*
X038024Y018497D02*
X037818D01*
Y018207D01*
X038356D01*
X038351Y018245D01*
X038317Y018327D01*
X038263Y018397D01*
X038193Y018451D01*
X038111Y018485D01*
X038024Y018497D01*
D02*
G37*
G36*
X037718D02*
X037512D01*
X037424Y018485D01*
X037342Y018451D01*
X037272Y018397D01*
X037218Y018327D01*
X037184Y018245D01*
X037179Y018207D01*
X037718D01*
Y018497D01*
D02*
G37*
G36*
X048024D02*
X047512D01*
X047424Y018485D01*
X047342Y018451D01*
X047272Y018397D01*
X047218Y018327D01*
X047184Y018245D01*
X047173Y018157D01*
X047184Y01807D01*
X047218Y017988D01*
X047272Y017918D01*
X047342Y017864D01*
X047424Y01783D01*
X047512Y017818D01*
X048024D01*
X048111Y01783D01*
X048193Y017864D01*
X048263Y017918D01*
X048317Y017988D01*
X048351Y01807D01*
X048363Y018157D01*
X048351Y018245D01*
X048317Y018327D01*
X048263Y018397D01*
X048193Y018451D01*
X048111Y018485D01*
X048024Y018497D01*
D02*
G37*
G36*
X038356Y018107D02*
X037818D01*
Y017818D01*
X038024D01*
X038111Y01783D01*
X038193Y017864D01*
X038263Y017918D01*
X038317Y017988D01*
X038351Y01807D01*
X038356Y018107D01*
D02*
G37*
G36*
X037718D02*
X037179D01*
X037184Y01807D01*
X037218Y017988D01*
X037272Y017918D01*
X037342Y017864D01*
X037424Y01783D01*
X037512Y017818D01*
X037718D01*
Y018107D01*
D02*
G37*
G36*
X016349Y016889D02*
Y015956D01*
X016894D01*
Y016299D01*
X016883Y016415D01*
X016849Y016527D01*
X016794Y01663D01*
X01672Y01672D01*
X01663Y016794D01*
X016527Y016849D01*
X016415Y016883D01*
X016349Y016889D01*
D02*
G37*
G36*
X016249D02*
X016183Y016883D01*
X016072Y016849D01*
X015969Y016794D01*
X015878Y01672D01*
X015804Y01663D01*
X01575Y016527D01*
X015716Y016415D01*
X015704Y016299D01*
Y015956D01*
X016249D01*
Y016889D01*
D02*
G37*
G36*
X030761Y017088D02*
X030657D01*
X030556Y017061D01*
X030466Y017009D01*
X030392Y016936D01*
X03034Y016845D01*
X030313Y016745D01*
Y016641D01*
X03034Y01654D01*
X030392Y01645D01*
X030466Y016377D01*
X030526Y016342D01*
Y016123D01*
X030323Y01592D01*
Y015495D01*
X030536Y015282D01*
X030961D01*
X031173Y015495D01*
Y01592D01*
X030961Y016132D01*
X030931D01*
Y016365D01*
X030951Y016377D01*
X031025Y01645D01*
X031077Y01654D01*
X031104Y016641D01*
Y016745D01*
X031077Y016845D01*
X031025Y016936D01*
X030951Y017009D01*
X030861Y017061D01*
X030761Y017088D01*
D02*
G37*
G36*
X016894Y015856D02*
X016349D01*
Y014922D01*
X016415Y014928D01*
X016527Y014962D01*
X01663Y015017D01*
X01672Y015091D01*
X016794Y015181D01*
X016849Y015284D01*
X016883Y015396D01*
X016894Y015512D01*
Y015856D01*
D02*
G37*
G36*
X016249D02*
X015704D01*
Y015512D01*
X015716Y015396D01*
X01575Y015284D01*
X015804Y015181D01*
X015878Y015091D01*
X015969Y015017D01*
X016072Y014962D01*
X016183Y014928D01*
X016249Y014922D01*
Y015856D01*
D02*
G37*
G36*
X021961Y015178D02*
X021861D01*
Y014774D01*
X022408D01*
X022399Y014842D01*
X022354Y014951D01*
X022282Y015045D01*
X022188Y015117D01*
X022078Y015163D01*
X021961Y015178D01*
D02*
G37*
G36*
X021761D02*
X021661D01*
X021544Y015163D01*
X021434Y015117D01*
X02134Y015045D01*
X021268Y014951D01*
X021223Y014842D01*
X021214Y014774D01*
X021761D01*
Y015178D01*
D02*
G37*
G36*
X027855Y015159D02*
X027845D01*
Y014759D01*
X028245D01*
Y014768D01*
X028215Y014882D01*
X028155Y014985D01*
X028072Y015069D01*
X027969Y015128D01*
X027855Y015159D01*
D02*
G37*
G36*
X02502D02*
X025011D01*
Y014759D01*
X025411D01*
Y014768D01*
X02538Y014882D01*
X025321Y014985D01*
X025237Y015069D01*
X025134Y015128D01*
X02502Y015159D01*
D02*
G37*
G36*
X027745D02*
X027736D01*
X027622Y015128D01*
X027519Y015069D01*
X027435Y014985D01*
X027376Y014882D01*
X027345Y014768D01*
Y014759D01*
X027745D01*
Y015159D01*
D02*
G37*
G36*
X024911D02*
X024901D01*
X024787Y015128D01*
X024684Y015069D01*
X024601Y014985D01*
X024541Y014882D01*
X024511Y014768D01*
Y014759D01*
X024911D01*
Y015159D01*
D02*
G37*
G36*
X030804Y015132D02*
X030798D01*
Y014757D01*
X031173D01*
Y014763D01*
X031144Y014872D01*
X031088Y014968D01*
X031009Y015048D01*
X030912Y015104D01*
X030804Y015132D01*
D02*
G37*
G36*
X030698D02*
X030692D01*
X030584Y015104D01*
X030487Y015048D01*
X030408Y014968D01*
X030352Y014872D01*
X030323Y014763D01*
Y014757D01*
X030698D01*
Y015132D01*
D02*
G37*
G36*
X031173Y014657D02*
X030798D01*
Y014282D01*
X030804D01*
X030912Y014311D01*
X031009Y014367D01*
X031088Y014447D01*
X031144Y014543D01*
X031173Y014652D01*
Y014657D01*
D02*
G37*
G36*
X030698D02*
X030323D01*
Y014652D01*
X030352Y014543D01*
X030408Y014447D01*
X030487Y014367D01*
X030584Y014311D01*
X030692Y014282D01*
X030698D01*
Y014657D01*
D02*
G37*
G36*
X022408Y014674D02*
X021861D01*
Y014271D01*
X021961D01*
X022078Y014286D01*
X022188Y014331D01*
X022282Y014403D01*
X022354Y014497D01*
X022399Y014607D01*
X022408Y014674D01*
D02*
G37*
G36*
X021761D02*
X021214D01*
X021223Y014607D01*
X021268Y014497D01*
X02134Y014403D01*
X021434Y014331D01*
X021544Y014286D01*
X021661Y014271D01*
X021761D01*
Y014674D01*
D02*
G37*
G36*
X028245Y014659D02*
X027845D01*
Y014259D01*
X027855D01*
X027969Y014289D01*
X028072Y014349D01*
X028155Y014432D01*
X028215Y014535D01*
X028245Y014649D01*
Y014659D01*
D02*
G37*
G36*
X027745D02*
X027345D01*
Y014649D01*
X027376Y014535D01*
X027435Y014432D01*
X027519Y014349D01*
X027622Y014289D01*
X027736Y014259D01*
X027745D01*
Y014659D01*
D02*
G37*
G36*
X025411D02*
X025011D01*
Y014259D01*
X02502D01*
X025134Y014289D01*
X025237Y014349D01*
X025321Y014432D01*
X02538Y014535D01*
X025411Y014649D01*
Y014659D01*
D02*
G37*
G36*
X024911D02*
X024511D01*
Y014649D01*
X024541Y014535D01*
X024601Y014432D01*
X024684Y014349D01*
X024787Y014289D01*
X024901Y014259D01*
X024911D01*
Y014659D01*
D02*
G37*
G36*
X032747Y014306D02*
Y014007D01*
X033046D01*
X033023Y014092D01*
X032977Y014172D01*
X032912Y014237D01*
X032832Y014283D01*
X032747Y014306D01*
D02*
G37*
G36*
X032647D02*
X032562Y014283D01*
X032482Y014237D01*
X032417Y014172D01*
X032371Y014092D01*
X032348Y014007D01*
X032647D01*
Y014306D01*
D02*
G37*
G36*
X034767Y014018D02*
Y013719D01*
X035065D01*
X035043Y013804D01*
X034997Y013884D01*
X034931Y013949D01*
X034852Y013995D01*
X034767Y014018D01*
D02*
G37*
G36*
X034667D02*
X034581Y013995D01*
X034502Y013949D01*
X034436Y013884D01*
X03439Y013804D01*
X034368Y013719D01*
X034667D01*
Y014018D01*
D02*
G37*
G36*
X049456Y013947D02*
Y013648D01*
X049754D01*
X049732Y013734D01*
X049686Y013813D01*
X04962Y013879D01*
X049541Y013925D01*
X049456Y013947D01*
D02*
G37*
G36*
X049356D02*
X04927Y013925D01*
X049191Y013879D01*
X049125Y013813D01*
X049079Y013734D01*
X049057Y013648D01*
X049356D01*
Y013947D01*
D02*
G37*
G36*
X052558Y013932D02*
Y013633D01*
X052857D01*
X052834Y013718D01*
X052788Y013798D01*
X052723Y013863D01*
X052643Y013909D01*
X052558Y013932D01*
D02*
G37*
G36*
X052458D02*
X052373Y013909D01*
X052293Y013863D01*
X052228Y013798D01*
X052182Y013718D01*
X052159Y013633D01*
X052458D01*
Y013932D01*
D02*
G37*
G36*
X033046Y013907D02*
X032747D01*
Y013608D01*
X032832Y013631D01*
X032912Y013677D01*
X032977Y013742D01*
X033023Y013822D01*
X033046Y013907D01*
D02*
G37*
G36*
X032647D02*
X032348D01*
X032371Y013822D01*
X032417Y013742D01*
X032482Y013677D01*
X032562Y013631D01*
X032647Y013608D01*
Y013907D01*
D02*
G37*
G36*
X018071Y014611D02*
X017283D01*
X017167Y014599D01*
X017056Y014565D01*
X016953Y01451D01*
X016863Y014436D01*
X016789Y014346D01*
X016734Y014243D01*
X0167Y014132D01*
X016688Y014016D01*
X0167Y0139D01*
X016734Y013788D01*
X016789Y013685D01*
X016863Y013595D01*
X016953Y013521D01*
X017056Y013466D01*
X017167Y013432D01*
X017283Y013421D01*
X018071D01*
X018187Y013432D01*
X018299Y013466D01*
X018401Y013521D01*
X018492Y013595D01*
X018566Y013685D01*
X018621Y013788D01*
X018654Y0139D01*
X018666Y014016D01*
X018654Y014132D01*
X018621Y014243D01*
X018566Y014346D01*
X018492Y014436D01*
X018401Y01451D01*
X018299Y014565D01*
X018187Y014599D01*
X018071Y014611D01*
D02*
G37*
G36*
X035065Y013619D02*
X034767D01*
Y01332D01*
X034852Y013343D01*
X034931Y013389D01*
X034997Y013454D01*
X035043Y013534D01*
X035065Y013619D01*
D02*
G37*
G36*
X034667D02*
X034368D01*
X03439Y013534D01*
X034436Y013454D01*
X034502Y013389D01*
X034581Y013343D01*
X034667Y01332D01*
Y013619D01*
D02*
G37*
G36*
X049754Y013548D02*
X049456D01*
Y013249D01*
X049541Y013272D01*
X04962Y013318D01*
X049686Y013384D01*
X049732Y013463D01*
X049754Y013548D01*
D02*
G37*
G36*
X049356D02*
X049057D01*
X049079Y013463D01*
X049125Y013384D01*
X049191Y013318D01*
X04927Y013272D01*
X049356Y013249D01*
Y013548D01*
D02*
G37*
G36*
X052857Y013533D02*
X052558D01*
Y013234D01*
X052643Y013257D01*
X052723Y013303D01*
X052788Y013368D01*
X052834Y013448D01*
X052857Y013533D01*
D02*
G37*
G36*
X052458D02*
X052159D01*
X052182Y013448D01*
X052228Y013368D01*
X052293Y013303D01*
X052373Y013257D01*
X052458Y013234D01*
Y013533D01*
D02*
G37*
%LPD*%
D18*
X026663Y049108D02*
D03*
X026732Y04622D02*
D03*
X026752Y040409D02*
D03*
X026683Y043514D02*
D03*
D19*
X023317Y049108D02*
D03*
X023386Y04622D02*
D03*
X023406Y040409D02*
D03*
X023337Y043514D02*
D03*
D45*
X043752Y051472D02*
D03*
X044752D02*
D03*
X045752D02*
D03*
X046752D02*
D03*
X047752D02*
D03*
X048752D02*
D03*
X049752D02*
D03*
X050752D02*
D03*
X051752D02*
D03*
X052752D02*
D03*
X053752D02*
D03*
X054752D02*
D03*
X055752D02*
D03*
X056752D02*
D03*
X057752D02*
D03*
X026378Y026535D02*
D03*
X031417D02*
D03*
X01878Y040354D02*
D03*
X01374D02*
D03*
Y049193D02*
D03*
Y043425D02*
D03*
Y046181D02*
D03*
X01878D02*
D03*
Y043425D02*
D03*
Y049193D02*
D03*
X030709Y021732D02*
D03*
Y016693D02*
D03*
D51*
X052508Y013583D02*
X060673D01*
X063677Y016587D01*
X04937Y013634D02*
X049406Y013598D01*
X034717Y013669D02*
X034752Y013634D01*
X04937D01*
X020935Y046181D02*
X022156Y044961D01*
X033625D01*
X034152Y044434D01*
X063265Y023972D02*
X063677Y02356D01*
X062189Y023972D02*
X063265D01*
X063677Y016587D02*
Y02356D01*
X032148Y014505D02*
Y014707D01*
Y014505D02*
X032697Y013957D01*
X047768Y019157D02*
X047783Y019173D01*
X057795D01*
X062173Y022957D02*
X062189Y022972D01*
X061579Y022957D02*
X062173D01*
X057795Y019173D02*
X061579Y022957D01*
X062169Y022992D02*
X062189Y022972D01*
X054929Y026157D02*
X054972Y026201D01*
X047768Y026157D02*
X054929D01*
X047789Y025179D02*
X054951D01*
X054972Y025201D01*
X047768Y025157D02*
X047789Y025179D01*
Y024179D02*
X054951D01*
X054972Y024201D01*
X047768Y024157D02*
X047789Y024179D01*
Y023179D02*
X054951D01*
X047768Y023157D02*
X047789Y023179D01*
X054951D02*
X054972Y023201D01*
X047789Y022179D02*
X054951D01*
X047768Y022157D02*
X047789Y022179D01*
X054951D02*
X054972Y022201D01*
X047789Y021179D02*
X054951D01*
X047768Y021157D02*
X047789Y021179D01*
X054951D02*
X054972Y021201D01*
X054951Y020179D02*
X054972Y020201D01*
X047768Y020157D02*
X047789Y020179D01*
X054951D01*
X047768Y027157D02*
X049004D01*
X049606Y02776D01*
Y033468D01*
X039858Y034295D02*
X04878D01*
X049606Y033468D01*
X039516Y034638D02*
Y049772D01*
Y034638D02*
X039858Y034295D01*
X038098Y051189D02*
X039516Y049772D01*
X03678Y051189D02*
X038098D01*
X048972Y030516D02*
Y033319D01*
X047777Y030167D02*
X048624D01*
X048972Y030516D01*
X048606Y033685D02*
X048972Y033319D01*
X039445Y033685D02*
X048606D01*
X038835Y034295D02*
X039445Y033685D01*
X038835Y034295D02*
Y049307D01*
X037953Y050189D02*
X038835Y049307D01*
X03678Y050189D02*
X037953D01*
X028492Y049161D02*
X036752D01*
X03678Y049189D01*
X028465Y049134D02*
X028492Y049161D01*
X058835Y049232D02*
Y05139D01*
X058752Y051472D02*
X058835Y05139D01*
X057752Y051472D02*
X057793Y051431D01*
Y049274D02*
X057835Y049232D01*
X057793Y049274D02*
Y051431D01*
X056793Y049274D02*
Y051431D01*
Y049274D02*
X056835Y049232D01*
X056752Y051472D02*
X056793Y051431D01*
X055793Y049274D02*
X055835Y049232D01*
X055793Y049274D02*
Y051431D01*
X055752Y051472D02*
X055793Y051431D01*
X054793Y049274D02*
X054835Y049232D01*
X054793Y049274D02*
Y051431D01*
X054752Y051472D02*
X054793Y051431D01*
X053752Y051472D02*
X053793Y051431D01*
Y049274D02*
X053835Y049232D01*
X053793Y049274D02*
Y051431D01*
X052793Y049274D02*
Y051431D01*
Y049274D02*
X052835Y049232D01*
X052752Y051472D02*
X052793Y051431D01*
X051793Y049274D02*
Y051431D01*
X051752Y051472D02*
X051793Y051431D01*
Y049274D02*
X051835Y049232D01*
X050752Y051472D02*
X050793Y051431D01*
Y049274D02*
X050835Y049232D01*
X050793Y049274D02*
Y051431D01*
X049793Y049274D02*
X049835Y049232D01*
X049793Y049274D02*
Y051431D01*
X049752Y051472D02*
X049793Y051431D01*
X048752Y051472D02*
X048793Y051431D01*
Y049274D02*
X048835Y049232D01*
X048793Y049274D02*
Y051431D01*
X047793Y049274D02*
Y051431D01*
Y049274D02*
X047835Y049232D01*
X047752Y051472D02*
X047793Y051431D01*
X046793Y049274D02*
Y051431D01*
Y049274D02*
X046835Y049232D01*
X046752Y051472D02*
X046793Y051431D01*
X045793Y049274D02*
Y051431D01*
Y049274D02*
X045835Y049232D01*
X045752Y051472D02*
X045793Y051431D01*
X044752Y051472D02*
X044793Y051431D01*
Y049274D02*
Y051431D01*
Y049274D02*
X044835Y049232D01*
X043752Y049315D02*
X043835Y049232D01*
X043752Y049315D02*
Y051472D01*
X032874Y019087D02*
X034646Y017315D01*
X034756D01*
X03176Y027327D02*
X032906Y026181D01*
Y021512D02*
Y026181D01*
X031417Y026535D02*
X032248Y025705D01*
Y020795D02*
Y025705D01*
Y020795D02*
X032886Y020157D01*
X03176Y027327D02*
Y028972D01*
X032886Y020157D02*
X037768D01*
X033547Y021681D02*
Y038227D01*
X034086Y021142D02*
X037752D01*
X033547Y021681D02*
X034086Y021142D01*
X032995Y03878D02*
X033547Y038227D01*
X037752Y021142D02*
X037768Y021157D01*
X033855Y022649D02*
Y041463D01*
Y022649D02*
X034346Y022157D01*
X037768D01*
X034579Y023205D02*
X03772D01*
X034152Y023631D02*
Y044434D01*
Y023631D02*
X034579Y023205D01*
X034449Y024516D02*
Y047126D01*
X034819Y024146D02*
X037756D01*
X034449Y024516D02*
X034819Y024146D01*
X037756D02*
X037768Y024157D01*
X033819Y047756D02*
X034449Y047126D01*
X03772Y023205D02*
X037768Y023157D01*
X026791Y04037D02*
X028535D01*
X026752Y040409D02*
X026791Y04037D01*
X026663Y049108D02*
X026689Y049134D01*
X028465D01*
X026732Y04622D02*
X026772Y046181D01*
X028465D01*
X026724Y043472D02*
X028496D01*
X026683Y043514D02*
X026724Y043472D01*
X023232Y049193D02*
X023317Y049108D01*
X01878Y049193D02*
X023232D01*
X02315Y046181D02*
X023287Y046319D01*
X020935Y046181D02*
X02315D01*
X023248Y043425D02*
X023337Y043514D01*
X020935Y043425D02*
X023248D01*
X02335Y040354D02*
X023406Y040409D01*
X020935Y040354D02*
X02335D01*
X026732Y04622D02*
X026831Y046319D01*
X026683Y043514D02*
X026781Y043612D01*
X026752Y040409D02*
X026772Y040429D01*
X025787Y036614D02*
X028563D01*
X028465Y036713D02*
Y037717D01*
Y036713D02*
X028563Y036614D01*
X025433Y035512D02*
Y03626D01*
X01878Y040354D02*
X020935D01*
X02251Y03878D02*
X032995D01*
X020935Y040354D02*
X02251Y03878D01*
X01878Y043425D02*
X020935D01*
X022392Y041968D02*
X033349D01*
X033855Y041463D01*
X020935Y043425D02*
X022392Y041968D01*
X022372Y047756D02*
X033819D01*
X020935Y049193D02*
X022372Y047756D01*
X01878Y046181D02*
X020935D01*
X023307Y040508D02*
X023406Y040409D01*
X023238Y043612D02*
X023337Y043514D01*
X010906Y045748D02*
Y04811D01*
X011988Y049193D02*
X01374D01*
X010906Y04811D02*
X011988Y049193D01*
X012087Y040354D02*
X01374D01*
X010906Y039173D02*
X012087Y040354D01*
X012126Y043425D02*
X01374D01*
X010906Y042205D02*
X012126Y043425D01*
X010906Y045079D02*
X012008Y046181D01*
X01374D01*
X028563Y036614D02*
X031417D01*
X010906Y04185D02*
X010945Y04189D01*
X032358Y028972D02*
X032598Y029213D01*
X03176Y028972D02*
X032358D01*
X014843Y036614D02*
X025787D01*
X025433Y03626D02*
X025787Y036614D01*
X025394Y035551D02*
X025433Y035512D01*
X030709Y016693D02*
X030728Y016673D01*
Y015727D02*
Y016673D01*
Y015727D02*
X030748Y015707D01*
X031417Y036614D02*
X032205D01*
X031339Y036693D02*
X031417Y036614D01*
X026323Y030866D02*
Y031036D01*
X025433Y031926D02*
X026323Y031036D01*
X025433Y031926D02*
Y03374D01*
X032205Y036614D02*
X032598Y03622D01*
Y029213D02*
Y03622D01*
X031766Y031978D02*
Y034718D01*
X03176Y031972D02*
X031766Y031978D01*
Y034718D02*
X031772Y034724D01*
X027756D02*
X028323Y034157D01*
Y030866D02*
Y034157D01*
X013858Y033698D02*
Y036598D01*
X013843Y036614D02*
X013858Y036598D01*
X021575Y029528D02*
Y030669D01*
Y026772D02*
Y029528D01*
X029016D01*
X029449Y029961D01*
Y031614D01*
X029807Y031972D01*
X03076D01*
X02126Y033646D02*
X022968D01*
X018685D02*
X02126D01*
Y034213D01*
X021654Y034606D01*
X02689D01*
X027323Y030866D02*
Y034173D01*
X02689Y034606D02*
X027323Y034173D01*
X022968Y033646D02*
X022992Y033669D01*
X018661Y033622D02*
X018685Y033646D01*
X023992Y02811D02*
X029898D01*
X03076Y028972D01*
X023465Y026535D02*
X026378D01*
X022992Y027008D02*
Y02811D01*
Y027008D02*
X023465Y026535D01*
X021575Y026772D02*
X021811Y026535D01*
X019449Y03126D02*
X020984D01*
X021575Y030669D01*
X018661Y026535D02*
Y028898D01*
X021575Y030669D02*
X022992D01*
D52*
X037012Y052209D02*
X037811Y053008D01*
X071839D02*
X073465Y051382D01*
X037811Y053008D02*
X071839D01*
X03678Y052189D02*
X036799Y052209D01*
X037012D01*
X026067Y021024D02*
Y022823D01*
X020055Y021024D02*
Y022823D01*
X025721Y023169D02*
X026067Y022823D01*
X020055D02*
X020401Y023169D01*
X025721D01*
X049913Y017157D02*
X059453D01*
X062189Y019894D01*
Y021972D01*
X052276Y012035D02*
X071461D01*
X073465Y014039D01*
Y051382D01*
X031957Y012035D02*
X048575D01*
X031933Y012059D02*
X031957Y012035D01*
X032148Y014707D02*
X034756Y017315D01*
X049406Y010949D02*
X0505Y012043D01*
X010906Y012205D02*
X012161Y010949D01*
X049406D01*
X047768Y017157D02*
X049913D01*
X0505Y012043D02*
Y016571D01*
X049913Y017157D02*
X0505Y016571D01*
X031933Y012059D02*
X037032Y017157D01*
X037768D01*
X034756Y017315D02*
X035598Y018157D01*
X037768D01*
X012205Y012405D02*
Y02311D01*
X012551Y012059D02*
X031933D01*
X012205Y012405D02*
X012551Y012059D01*
X010906Y039173D02*
Y04185D01*
Y012205D02*
Y039173D01*
Y042205D02*
Y045079D01*
Y04185D02*
Y042205D01*
Y045079D02*
Y045748D01*
X030748Y014707D02*
X032148D01*
X02885Y021732D02*
Y023788D01*
X013701Y024606D02*
X028031D01*
X02885Y023788D01*
Y021732D02*
X030709D01*
X021811Y013141D02*
Y014295D01*
X016772Y012795D02*
X021465D01*
X021811Y013141D01*
X016299Y013268D02*
Y015906D01*
Y013268D02*
X016772Y012795D01*
X018661Y026535D02*
X021811D01*
X013268D02*
X018661D01*
X012205Y025472D02*
X013268Y026535D01*
X012205Y02311D02*
Y025472D01*
Y02311D02*
X013701Y024606D01*
X027795Y020678D02*
X02885Y021732D01*
X027795Y016709D02*
Y020678D01*
X026067Y021024D02*
X027449D01*
X027795Y020678D01*
X023976Y016693D02*
X024945D01*
X024961Y016709D01*
X023508Y016224D02*
X023976Y016693D01*
X021811Y016224D02*
X023508D01*
X027795Y014709D02*
X027796Y014708D01*
X030747D01*
X030748Y014707D01*
X024961Y014709D02*
X027795D01*
X021819Y014717D02*
X024953D01*
X024961Y014709D01*
X024931Y016709D02*
X024961D01*
X021324Y016279D02*
X021756D01*
X020236Y016299D02*
X021304D01*
X021756Y016279D02*
X021811Y016224D01*
X019843Y015906D02*
X020236Y016299D01*
X021304D02*
X021324Y016279D01*
X018661Y015906D02*
X019843D01*
X018661D02*
Y018268D01*
X018055Y018874D02*
X018661Y018268D01*
X018055Y018874D02*
Y021024D01*
X023386D02*
X024567D01*
X022646Y019449D02*
X022992Y019795D01*
Y02063D02*
X023386Y021024D01*
X019449Y019449D02*
X022646D01*
X022992Y019795D02*
Y02063D01*
X019055Y019843D02*
X019449Y019449D01*
X019055Y019843D02*
Y021024D01*
Y022598D01*
X015512Y022992D02*
X018661D01*
X019055Y022598D01*
X015118D02*
X015512Y022992D01*
X016299Y015906D02*
Y016299D01*
X015118Y01748D02*
X016299Y016299D01*
X015118Y01748D02*
Y022598D01*
D53*
X030748Y015707D02*
D03*
D54*
Y014707D02*
D03*
X023992Y02811D02*
D03*
D55*
X03678Y050189D02*
D03*
Y051189D02*
D03*
Y049189D02*
D03*
X062189Y022972D02*
D03*
Y023972D02*
D03*
X054972Y020201D02*
D03*
Y024201D02*
D03*
Y025201D02*
D03*
Y023201D02*
D03*
Y022201D02*
D03*
Y021201D02*
D03*
X014843Y036614D02*
D03*
D56*
X03678Y052189D02*
D03*
X062189Y021972D02*
D03*
X054972Y026201D02*
D03*
D57*
X058752Y051472D02*
D03*
D58*
X047768Y017157D02*
D03*
X037768Y030157D02*
D03*
Y029157D02*
D03*
Y028157D02*
D03*
Y027157D02*
D03*
Y026157D02*
D03*
Y025157D02*
D03*
Y024157D02*
D03*
Y023157D02*
D03*
Y022157D02*
D03*
Y021157D02*
D03*
Y020157D02*
D03*
Y019157D02*
D03*
Y018157D02*
D03*
Y017157D02*
D03*
X047768Y031157D02*
D03*
Y030157D02*
D03*
Y029157D02*
D03*
Y028157D02*
D03*
Y027157D02*
D03*
Y026157D02*
D03*
Y025157D02*
D03*
Y024157D02*
D03*
Y023157D02*
D03*
Y022157D02*
D03*
Y021157D02*
D03*
Y020157D02*
D03*
Y019157D02*
D03*
Y018157D02*
D03*
D59*
X037768Y031157D02*
D03*
D60*
X018661Y033622D02*
D03*
Y028898D02*
D03*
X013858Y033698D02*
D03*
Y028898D02*
D03*
X019449Y03126D02*
D03*
D61*
X022992Y033669D02*
D03*
D62*
Y030669D02*
D03*
D63*
X022992Y02811D02*
D03*
D64*
X027795Y016709D02*
D03*
Y014709D02*
D03*
X024961D02*
D03*
Y016709D02*
D03*
D65*
X017677Y014016D02*
D03*
D66*
X016299Y015906D02*
D03*
D67*
X018661D02*
D03*
D68*
X024567Y021024D02*
D03*
D69*
X026067D02*
D03*
D70*
X018055D02*
D03*
D71*
X019055D02*
D03*
X020055D02*
D03*
D72*
X043835Y049232D02*
D03*
D73*
X044835D02*
D03*
X045835D02*
D03*
X046835D02*
D03*
X047835D02*
D03*
X048835D02*
D03*
X049835D02*
D03*
X050835D02*
D03*
X051835D02*
D03*
X052835D02*
D03*
X053835D02*
D03*
X054835D02*
D03*
X055835D02*
D03*
X056835D02*
D03*
X057835D02*
D03*
X058835D02*
D03*
D74*
X013843Y036614D02*
D03*
D75*
X03176Y028972D02*
D03*
X03076D02*
D03*
X03176Y031972D02*
D03*
X03076D02*
D03*
D76*
X031772Y034724D02*
D03*
X027756D02*
D03*
D77*
X028323Y030866D02*
D03*
X027323D02*
D03*
X026323D02*
D03*
D78*
X021811Y016224D02*
D03*
D79*
Y014724D02*
D03*
D80*
X052508Y013583D02*
D03*
X049406Y013598D02*
D03*
X034717Y013669D02*
D03*
X032697Y013957D02*
D03*
X048575Y012035D02*
D03*
X052276D02*
D03*
X032906Y021512D02*
D03*
X032874Y019087D02*
D03*
X028496Y043472D02*
D03*
X028535Y04037D02*
D03*
X028465Y046181D02*
D03*
Y049134D02*
D03*
Y037717D02*
D03*
X025433Y035512D02*
D03*
Y03374D02*
D03*
M02*
